<svg width="57" height="78" viewBox="0 0 57 78" fill="none" xmlns="http://www.w3.org/2000/svg">
<g clip-path="url(#clip0_521_3037)">
<path d="M56.315 47.9127C56.3911 37.0383 57.9385 26.0757 56.0867 15.2644C55.3383 10.9248 53.829 11.215 49.5547 11.1645C45.2803 11.114 41.2215 11.1645 37.0613 10.9879C37.0613 10.9879 36.9852 10.9879 36.9598 10.9879C36.3129 10.5968 35.6914 10.2184 34.9812 9.78944C32.8376 8.38915 33.9919 8.27561 34.2963 6.00487C34.5823 4.62335 34.3185 3.18537 33.5606 1.99322C31.62 -0.643361 26.4705 -0.529825 24.0606 1.32461C21.2956 3.39351 23.2108 5.55072 22.564 8.04853C22.2723 9.15868 19.9005 9.86513 18.556 10.8617H18.4038C13.7743 10.95 7.24224 9.95343 2.85372 11.7196C0.875084 12.5269 0.545295 13.7254 0.380409 15.7186C0.076003 19.1878 0.202823 22.7831 0.126722 26.2649C-0.0254811 35.5624 -0.0254409 44.8346 0.0887113 54.1698C0.0887113 57.7441 0.135199 61.3143 0.228212 64.8802C0.228212 67.6429 -0.266478 71.1878 0.989196 73.7991C3.52591 78.8452 9.86771 77.9117 14.4718 77.9748C22.7035 78.0883 30.9605 77.6342 39.1668 77.6972C42.4265 77.6972 45.6734 77.3819 48.9331 77.4071C51.622 77.4071 53.5627 77.6594 55.1608 75.1616C57.1775 72.0078 56.2516 67.1257 56.2896 63.606C56.3404 58.3707 56.2769 53.148 56.315 47.9127ZM24.0733 9.76421C24.2403 9.66417 24.3702 9.51293 24.4434 9.33322C24.5166 9.15351 24.5291 8.95503 24.4792 8.7676C23.9465 6.24456 23.0713 3.43136 26.3056 2.18245C28.2462 1.43815 31.6201 1.65261 32.5079 3.97381C33.0406 5.3741 32.1655 7.32947 31.5567 8.56576C31.4582 8.73268 31.4184 8.92749 31.4436 9.1194C31.4689 9.31131 31.5578 9.48937 31.6962 9.62544C33.7002 11.2906 36.7696 12.2242 38.2916 14.3183C38.6626 14.7496 38.9333 15.257 39.0846 15.8043C39.2359 16.3517 39.264 16.9254 39.1668 17.4847C38.3551 20.7899 34.829 20.2979 32.102 20.3232C28.7409 20.3232 25.3671 20.4367 21.9552 20.4367C20.9082 20.5659 19.8476 20.5361 18.8096 20.3484C16.9451 19.6041 17.5413 19.4401 17.2496 17.9136C17.1873 17.0738 17.1873 16.2305 17.2496 15.3906C17.7315 12.4891 21.7649 10.8743 24.0733 9.76421ZM41.1454 18.2669C42.7816 18.2669 44.4432 18.4813 46.0667 18.4687C46.6374 18.4687 47.9311 18.6579 47.8423 18.4687C48.0833 18.8346 47.8423 20.2096 47.8423 20.6259C47.8423 23.847 47.8677 27.0639 47.9184 30.2766C47.9184 39.4731 48.0072 48.657 47.9184 57.8409C47.9184 61.0704 47.9184 64.3125 47.8296 67.542C47.8296 67.8447 47.9945 69.4343 47.7535 69.6613C46.9418 70.4435 42.4011 69.6613 41.1581 69.8127C37.4281 70.1783 33.681 70.3426 29.9331 70.3047C25.7222 70.2038 21.6381 70.5066 17.4017 70.5318C14.8016 70.5318 10.1087 71.2256 9.03062 68.7026C8.38376 67.2014 8.5867 64.8045 8.48523 63.1771C8.01594 54.8637 8.38373 46.5376 8.13006 38.2116C8.13006 34.427 8.23151 30.6424 8.26956 26.9209C8.26956 25.4071 7.33102 20.1718 8.15545 18.885C8.97988 17.5983 13.2289 18.0524 15.3724 18.166C15.3724 19.7176 15.6895 21.2693 16.9705 21.9505C19.2536 23.0607 23.7436 22.0893 26.1661 22.0641C29.2483 22.0641 32.3176 22.0641 35.3997 22.001C39.4331 21.8748 41.1961 21.2315 41.1835 18.2669H41.1454ZM54.7676 40.1417C54.3871 48.4804 54.6027 56.8443 54.5012 65.1829C54.5012 69.7623 55.4652 75.2751 49.5293 75.6536C46.7643 75.805 43.9739 75.9437 41.2088 75.9563C35.108 75.9563 29.0453 76.0573 22.9445 76.196C19.5199 76.2717 16.0954 76.196 12.6708 76.196C10.7553 76.3353 8.83053 76.2846 6.9251 76.0446C1.76288 74.7831 2.09268 70.5696 2.02926 66.4445C2.02926 63.2023 1.91511 59.9728 1.87706 56.7307C1.78828 49.5022 1.73753 42.2737 1.78827 35.0325C1.78827 31.0461 1.8644 27.0471 1.97855 23.0607C1.97855 20.9539 1.38237 16.9297 2.24486 14.9869C3.65273 11.8205 12.2268 12.4639 16.7422 12.59C16.1964 13.2844 15.8228 14.0969 15.6514 14.9617C15.5822 15.0895 15.5473 15.2329 15.55 15.378C15.55 15.6934 15.55 16.0718 15.55 16.4755C13.2289 16.3241 9.20815 15.8574 7.64807 16.7909C6.08799 17.7244 6.55728 19.9573 6.60801 21.6478C6.78558 27.1858 6.4558 32.7365 6.51922 38.2746C6.78557 47.1053 6.32901 55.936 6.96319 64.7666C7.11539 66.8355 6.96315 70.065 8.66274 71.4905C9.51254 72.1718 12.4678 72.1844 13.6728 72.2853C16.0036 72.4493 18.3433 72.4493 20.6741 72.2853C25.3544 72.0078 30.0473 71.8312 34.7276 71.9195C38.5326 71.9195 42.3377 71.7429 46.1428 71.5915C47.4999 71.5284 48.9458 71.5915 49.6434 70.2543C50.5059 68.6521 49.8337 64.9306 49.8464 63.2023C49.9478 52.7822 49.8464 42.362 49.8464 31.9418C49.8464 27.8671 49.9605 23.7419 49.7449 19.6672C49.5293 15.5924 44.3924 16.4629 41.0947 16.5134C41.0312 16.198 40.9679 15.87 40.9045 15.5168C40.6931 14.5048 40.1907 13.5757 39.4585 12.8423L44.0753 12.9054H48.8824C52.0152 12.9054 53.4739 12.5396 54.4632 15.7312C56.6575 23.1111 55.1101 32.5599 54.7676 40.1417Z" fill="#5A1647"/>
<path d="M30.0602 30.327C27.3787 30.0706 24.6801 30.041 21.9935 30.2387C20.8646 30.3523 20.852 32.1058 21.9935 31.9922C24.6799 31.7883 27.379 31.8178 30.0602 32.0806C31.333 32.1264 32.6072 32.0504 33.8653 31.8535C35.7504 31.7292 37.6428 31.7629 39.5222 31.9544C40.6637 31.9544 40.6637 30.2387 39.5222 30.1883C38.1397 30.1883 36.7825 29.8729 35.4 29.9233C33.5736 29.9864 31.8613 30.428 30.0602 30.327Z" fill="#5A1647"/>
<path d="M21.6891 39.7884C20.5476 39.7884 20.5476 41.5798 21.6891 41.542C24.8347 41.441 28.0309 41.4032 31.1257 41.542C34.0188 41.656 36.9161 41.5928 39.8013 41.3527C40.9302 41.277 40.9429 39.5109 39.8013 39.5866C33.7766 39.9651 27.7646 39.5361 21.6891 39.7884Z" fill="#5A1647"/>
<path d="M40.0042 49.1364C36.8333 49.2625 33.6624 49.3508 30.4915 49.3004C27.3206 49.2499 24.3527 48.8967 21.2452 49.7167C21.0441 49.7984 20.8801 49.9507 20.7843 50.1447C20.6885 50.3386 20.6676 50.5608 20.7254 50.7691C20.7832 50.9774 20.9159 51.1573 21.0981 51.2749C21.2804 51.3925 21.4997 51.4395 21.7145 51.4071C24.9615 50.5619 28.2846 51.0413 31.6204 51.0665C34.4235 51.0665 37.2138 51.0665 40.0042 50.8899C41.1457 50.8394 41.1457 49.0859 40.0042 49.1364Z" fill="#5A1647"/>
<path d="M39.9661 58.8248C33.7385 59.6448 27.5869 57.7021 21.448 58.8248C20.3319 59.0267 20.8011 60.7297 21.9173 60.5153C27.8532 59.4304 33.916 61.3731 39.9661 60.5783C41.0822 60.4396 41.0949 58.7113 39.9661 58.8248Z" fill="#5A1647"/>
<path d="M18.3153 30.491C17.7748 30.4532 17.2322 30.4532 16.6917 30.491C15.5629 30.491 15.5502 32.3076 16.6917 32.2571C17.232 32.2131 17.775 32.2131 18.3153 32.2571C19.4441 32.3707 19.4314 30.6172 18.3153 30.491Z" fill="#5A1647"/>
<path d="M16.5777 41.5293C16.5777 41.5293 17.4021 41.5293 17.2499 41.3023C17.3487 41.3858 17.4636 41.4487 17.5875 41.487C17.7113 41.5254 17.8417 41.5385 17.9708 41.5255C18.0999 41.5126 18.225 41.4738 18.3387 41.4116C18.4524 41.3494 18.5523 41.265 18.6324 41.1635C18.7288 40.996 18.7673 40.8017 18.7421 40.6103C18.7169 40.4189 18.6293 40.241 18.4928 40.1038C17.9855 39.5109 16.7678 39.7127 16.1083 39.8767C15.0048 40.1038 15.4742 41.8069 16.5777 41.5293Z" fill="#5A1647"/>
<path d="M18.0231 49.8806H16.4631C16.2276 49.8806 16.0017 49.9737 15.8352 50.1393C15.6687 50.3049 15.5752 50.5295 15.5752 50.7637C15.5752 50.9979 15.6687 51.2225 15.8352 51.3881C16.0017 51.5537 16.2276 51.6468 16.4631 51.6468H18.0485C18.284 51.6434 18.5085 51.5472 18.6726 51.3792C18.8367 51.2112 18.927 50.9853 18.9237 50.7511C18.9203 50.5169 18.8235 50.2936 18.6547 50.1304C18.4858 49.9671 18.2586 49.8773 18.0231 49.8806Z" fill="#5A1647"/>
<path d="M17.9343 58.8753H16.4758C15.3342 58.8753 15.3342 60.6793 16.4758 60.6414L17.9343 60.5784C19.0632 60.591 19.0759 58.8248 17.9343 58.8753Z" fill="#5A1647"/>
<path d="M28.2717 6.33284C28.5071 6.33284 28.733 6.23981 28.8995 6.0742C29.066 5.90859 29.1595 5.68398 29.1595 5.44978C29.1595 5.21557 29.066 4.99096 28.8995 4.82536C28.733 4.65975 28.5071 4.56671 28.2717 4.56671C28.0362 4.56671 27.8103 4.65975 27.6438 4.82536C27.4773 4.99096 27.3838 5.21557 27.3838 5.44978C27.3838 5.68398 27.4773 5.90859 27.6438 6.0742C27.8103 6.23981 28.0362 6.33284 28.2717 6.33284Z" fill="#5A1647"/>
<path d="M20.8267 17.737C20.8267 16.9675 20.6111 16.1601 21.0803 15.4915C21.5232 14.8928 22.1186 14.4224 22.8053 14.1291C23.82 13.6371 22.9321 12.1232 21.9047 12.6152C20.9438 13.0597 20.1203 13.7523 19.5202 14.6211C18.8607 15.6177 19.1398 16.6143 19.0383 17.737C18.9368 18.8598 20.7379 18.8472 20.8267 17.737Z" fill="#5A1647"/>
<path d="M24.5553 13.1198C24.7908 13.1198 25.0167 13.0268 25.1832 12.8612C25.3497 12.6956 25.4432 12.471 25.4432 12.2368C25.4432 12.0026 25.3497 11.778 25.1832 11.6123C25.0167 11.4467 24.7908 11.3537 24.5553 11.3537C24.3199 11.3537 24.094 11.4467 23.9275 11.6123C23.761 11.778 23.6675 12.0026 23.6675 12.2368C23.6675 12.471 23.761 12.6956 23.9275 12.8612C24.094 13.0268 24.3199 13.1198 24.5553 13.1198Z" fill="#5A1647"/>
</g>
<defs>
<clipPath id="clip0_521_3037">
<rect width="57" height="78" fill="white"/>
</clipPath>
</defs>
</svg>
