<svg width="74" height="67" viewBox="0 0 74 67" fill="none" xmlns="http://www.w3.org/2000/svg">
<g clip-path="url(#clip0_521_3026)">
<path d="M57.1034 0.400815C48.9386 -0.851756 40.1186 3.48215 37.2836 11.1354C35.7559 7.45398 32.9964 4.40988 29.4716 2.51766C23.7134 -0.688919 18.0559 -0.73902 11.8945 1.8538C7.13169 3.84539 3.38947 9.08114 1.41127 13.6405C-1.10874 19.4023 0.151278 26.4543 1.73888 32.2913C1.82057 32.4898 1.97268 32.6518 2.16639 32.7464C2.36011 32.841 2.58205 32.8617 2.79009 32.8046C2.99813 32.7475 3.17784 32.6165 3.29528 32.4365C3.41272 32.2565 3.45972 32.0399 3.42732 31.8278C0.831713 22.0828 1.26011 11.3357 10.1935 4.80985C14.3893 1.74105 21.6092 0.663847 26.2712 2.78069C31.16 5.01027 36.0236 9.34419 36.3512 15.0183C36.377 15.2312 36.4802 15.4274 36.6416 15.5697C36.803 15.7119 37.0112 15.7905 37.2269 15.7905C37.4426 15.7905 37.6508 15.7119 37.8122 15.5697C37.9735 15.4274 38.0769 15.2312 38.1026 15.0183C39.0224 4.63452 51.8493 -0.914401 60.7827 3.31929C70.3335 7.81602 74.3655 20.5672 71.2155 30.2245C69.2373 36.312 61.3623 34.7964 56.1837 34.834C53.2353 34.834 50.2994 34.834 47.3636 34.834C46.9604 34.834 45.335 34.834 45.3854 34.834C44.9192 34.5459 43.7222 31.0763 43.445 30.3498C43.3847 30.1505 43.2551 29.979 43.0793 29.866C42.9035 29.753 42.6931 29.7059 42.4855 29.733C42.278 29.7601 42.0869 29.8597 41.9464 30.014C41.8059 30.1683 41.7253 30.3672 41.7188 30.5752C41.1518 35.1095 39.9548 39.5061 39.0224 43.9527C38.1026 36.4373 37.7624 28.9218 36.5024 21.4816C36.3512 20.6173 34.9904 20.6799 34.8014 21.4816C33.5918 26.6756 32.3864 31.8737 31.1852 37.0761L29.648 29.8362C29.4716 29.0346 28.0856 28.972 27.9596 29.8362C27.7706 31.0262 27.4681 34.2954 26.6995 34.8465C26.1451 35.2348 24.0536 34.8465 23.3227 34.8465H13.7594C10.2818 34.8465 4.80074 34.1325 4.93934 39.3182C5.01494 42.0363 7.54753 44.7919 9.17293 46.8336C11.5593 49.7167 14.2786 52.3107 17.2747 54.562C23.3354 59.2842 30.1142 62.9417 36.6662 66.9248C36.8003 67.0018 36.9524 67.0423 37.1072 67.0423C37.262 67.0423 37.4142 67.0018 37.5482 66.9248C49.1457 60.5948 59.3237 51.9813 67.4607 41.6104C68.1537 40.7336 66.9189 39.4935 66.2007 40.3578C60.7694 47.4574 54.3261 53.7319 47.0739 58.9835C44.7177 60.5994 39.5138 65.2464 36.641 64.8581C35.2676 64.6702 33.365 62.9166 32.168 62.2152C30.3158 61.1254 28.4762 60.0357 26.6618 58.9084C22.6231 56.4711 18.7999 53.6971 15.2335 50.6164C13.1293 48.7375 2.63349 38.7044 9.53831 36.5751C12.1591 35.7609 16.4306 36.575 19.19 36.6377H27.3548C27.5468 36.6335 27.7327 36.5696 27.8863 36.455C28.04 36.3405 28.1537 36.181 28.2116 35.9989C28.4132 35.335 28.6022 34.6711 28.7912 34.0198L30.4166 41.2722C30.4714 41.4523 30.5831 41.6102 30.7351 41.7223C30.8871 41.8345 31.0714 41.895 31.2608 41.895C31.4501 41.895 31.6344 41.8345 31.7865 41.7223C31.9385 41.6102 32.0502 41.4523 32.105 41.2722C33.2642 36.3371 34.415 31.3977 35.5574 26.4543C36.5528 34.2077 36.9056 42.0363 38.2034 49.7646C38.3798 50.8293 39.8162 50.416 39.9296 49.5266C40.5974 44.2658 42.0968 39.1679 43.067 33.9572C43.2868 34.6206 43.6826 35.2127 44.2126 35.6712C44.7426 36.1297 45.3871 36.4376 46.0784 36.5625C50.06 37.2013 54.722 36.5625 58.6784 36.5625C62.3703 36.5625 67.2843 37.3516 70.3587 34.8715C73.0425 32.7296 73.5717 28.9093 73.8615 25.7278C74.8569 14.9432 68.8971 2.17947 57.1034 0.400815Z" fill="#5A1647"/>
</g>
<defs>
<clipPath id="clip0_521_3026">
<rect width="74" height="67" fill="white"/>
</clipPath>
</defs>
</svg>
