<svg width="77" height="43" viewBox="0 0 77 43" fill="none" xmlns="http://www.w3.org/2000/svg">
<path d="M76.9249 22.4293C76.9249 21.7557 76.7868 21.0946 76.7743 20.4334C76.8965 19.675 76.7734 18.8975 76.4227 18.213C75.6319 17.1776 74.2009 17.3148 72.9958 17.3397C72.9958 15.5933 72.9205 13.8344 72.9205 12.0879C72.9205 10.8405 73.3222 8.81955 72.5815 7.74673C71.3262 5.98781 67.7989 6.19988 65.6649 6.14998C65.6649 5.85059 65.6649 5.5512 65.6649 5.25181C65.2757 0.735999 62.8028 0.0374315 58.4469 7.62939e-06C53.6266 7.62939e-06 52.3713 1.65913 52.0449 6.34958C51.7813 10.092 51.6808 13.8344 51.6306 17.5019C47.0362 17.8886 42.128 17.3522 37.5085 17.4021C33.5543 17.4021 29.5625 17.4769 25.6083 17.6266C25.5455 13.8843 25.4451 10.2417 25.1815 6.57412C24.8551 1.92108 23.5998 0.187118 18.7795 0.224542C15.4153 0.224542 11.9632 0.548879 11.5238 4.35364C11.4485 5.02727 11.3983 5.70089 11.3607 6.37452C9.25175 6.37452 5.97541 6.23729 4.75777 7.77167C3.18865 9.73018 3.91672 14.9321 3.89161 17.2274V17.4645C2.92867 17.3477 1.95205 17.4197 1.01701 17.6765C-0.401478 18.2753 0.125732 20.6704 0.138285 21.868C0.150838 23.0656 -0.288524 25.0865 1.26805 25.4233C2.09493 25.5807 2.93776 25.6393 3.77864 25.5979C3.71948 28.4109 3.99761 31.2208 4.60714 33.9684C5.42309 37.1743 8.51113 37.1619 11.5238 37.2118C11.5238 37.6234 11.5238 38.0476 11.5866 38.4592C11.9381 42.5135 14.1725 42.7755 17.7752 42.8378C20.0724 42.8378 23.6877 43.6736 25.0309 41.3783C25.8217 40.031 25.6585 37.6359 25.6962 36.1639C25.8092 32.9205 25.784 29.6771 25.6962 26.4337V25.6478C34.295 25.548 42.9691 25.9721 51.5428 25.5231C51.5428 28.4172 51.5428 31.3238 51.5428 34.2553C51.5428 36.1265 51.2666 38.5091 51.8691 40.3055C52.911 43.3618 56.5388 42.6757 59.2503 42.6382C62.3258 42.6382 64.874 42.7879 65.5896 39.2701C65.7367 38.5254 65.8248 37.7705 65.8532 37.0122C68.7152 37.0122 71.8535 37.0122 72.6694 33.8811C73.2516 31.2618 73.467 28.5752 73.3096 25.8973C74.277 25.9984 75.2545 25.8657 76.1592 25.5106C77.2262 24.9367 77.0002 23.4523 76.9249 22.4293ZM1.85804 23.8016C1.77017 23.0157 1.85804 22.1425 1.85804 21.4065C1.85804 20.9324 1.85804 20.4708 1.85804 19.9968C1.85804 19.8845 1.97101 19.2982 1.85804 19.2483C2.27546 19.2075 2.69591 19.2075 3.11334 19.2483C3.3895 19.2483 3.67824 19.2483 3.9544 19.2483C3.9544 20.7578 3.86654 22.342 3.84143 23.9388C3.17919 23.99 2.51312 23.9607 1.85804 23.8515V23.8016ZM6.13861 32.5338C5.92013 31.1309 5.8277 29.7116 5.86244 28.2924C5.67415 24.6124 5.57375 20.9199 5.6114 17.2399C5.45149 14.9498 5.5441 12.6491 5.88757 10.3789C6.49012 7.88397 8.91284 8.18334 11.2602 8.13344C11.1849 12.1877 11.5741 16.3418 11.4988 20.3461C11.3983 25.2736 11.1221 30.4755 11.323 35.4903C8.57389 35.4279 6.89179 35.5901 6.13861 32.5837V32.5338ZM23.876 37.4363C23.7504 39.32 23.9513 40.6673 21.9428 41.1787C20.6448 41.3097 19.3368 41.3097 18.0389 41.1787C17.0036 41.2633 15.9702 40.9957 15.1081 40.42C14.2459 39.8443 13.6062 38.9946 13.2938 38.0102C12.8545 36.4134 13.3566 34.0183 13.2938 32.3467C13.2938 28.3548 13.1934 24.3754 13.2938 20.3835C13.2938 17.7514 13.2938 15.1192 13.2185 12.4746C13.2185 10.3914 13.3566 8.3081 13.344 6.23732C13.344 2.8068 15.6287 2.02089 18.792 2.02089C19.643 2.02278 20.482 2.2196 21.244 2.59604C22.006 2.97249 22.6704 3.51843 23.1856 4.19146C23.6877 4.97736 23.4366 6.91093 23.4868 7.93385C23.5998 9.97968 23.6375 12.0255 23.7002 14.0589C23.8132 17.9759 23.9011 21.8805 23.9387 25.7975C23.9764 29.7145 24.0768 33.5443 23.876 37.4363ZM25.6962 23.9138C25.6962 22.4044 25.6962 20.8825 25.6962 19.3731C29.6504 19.2234 33.6297 19.1984 37.5839 19.1486C42.1908 19.0862 47.099 19.6226 51.6808 19.2483C51.6808 20.7578 51.6808 22.2797 51.6808 23.7891C42.9188 24.2382 34.2447 23.8515 25.6334 23.9138H25.6962ZM64.0455 12.2002C63.9702 14.8448 63.92 17.4769 63.9702 20.1091C64.0455 23.8515 63.9702 27.5939 63.9702 31.3362C63.9702 35.4653 65.2255 40.8045 59.3005 40.8918C58.3214 40.8918 56.5012 41.266 55.5346 40.8918C52.8985 39.7317 53.3755 37.6983 53.3378 35.5776C53.2625 31.8352 53.2625 28.2051 53.3378 24.5126C53.4131 20.8201 53.4885 16.8532 53.614 13.0235C53.7395 8.88194 52.4968 1.79636 58.4971 1.79636C62.0621 1.79636 63.4304 3.04382 64.0079 6.71136C64.1799 8.53645 64.1925 10.3729 64.0455 12.2002ZM71.3011 28.5794C71.3623 29.8723 71.2908 31.168 71.0877 32.4465C70.3345 35.3656 68.5018 35.2159 65.8908 35.2533C65.8908 33.407 65.6899 31.5109 65.715 29.8018C65.715 26.5709 65.7778 23.3525 65.715 20.1091C65.6397 16.0548 65.9285 11.9507 65.8155 7.88397C66.9025 7.85724 67.989 7.95348 69.0542 8.17087C71.0124 8.6948 71.0501 8.89439 71.2509 11.0899C71.502 13.8094 71.3137 16.6536 71.3388 19.3731C71.3262 22.4418 71.3514 25.5106 71.2384 28.5794H71.3011ZM73.272 24.0636C73.1967 22.4419 73.1088 20.8451 73.0962 19.3731C73.0962 19.2858 73.0962 19.186 73.0962 19.0862C73.5105 19.0862 73.9122 19.0862 74.3515 19.0862C74.7909 19.0862 74.9541 18.9739 75.1298 19.4354C75.1866 19.8953 75.1866 20.3603 75.1298 20.8201C75.1298 21.3191 75.2177 21.8056 75.2553 22.3046C75.2825 22.72 75.2825 23.1367 75.2553 23.5521C75.2459 23.6933 75.2459 23.835 75.2553 23.9762C75.1974 23.9887 75.1375 23.9887 75.0796 23.9762C74.4143 24.0012 73.8117 24.0511 73.2092 24.0636H73.272Z" fill="#5A1647"/>
<path d="M15.0889 6.16246C14.4348 8.28905 14.3227 10.5438 14.7625 12.7241C14.9006 13.8219 16.6455 13.8343 16.52 12.7241C16.0939 10.7014 16.1802 8.60533 16.771 6.62402C17.1978 5.58863 15.5157 5.13955 15.0889 6.16246Z" fill="#5A1647"/>
<path d="M17.499 3.5927C17.2856 3.61818 17.089 3.72045 16.9464 3.88021C16.8038 4.03996 16.7251 4.24611 16.7251 4.45966C16.7251 4.67321 16.8038 4.87936 16.9464 5.03912C17.089 5.19888 17.2856 5.30118 17.499 5.32666C17.7123 5.30118 17.9089 5.19888 18.0515 5.03912C18.1941 4.87936 18.2728 4.67321 18.2728 4.45966C18.2728 4.24611 18.1941 4.03996 18.0515 3.88021C17.9089 3.72045 17.7123 3.61818 17.499 3.5927Z" fill="#5A1647"/>
<path d="M55.6473 5.36406C55.127 6.30415 54.8549 7.35995 54.8564 8.43284C54.6997 9.67394 54.6619 10.927 54.7435 12.1752C54.8439 13.2855 56.5887 13.2979 56.5009 12.1752C56.4193 11.1373 56.4193 10.0945 56.5009 9.05657C56.468 8.08072 56.6794 7.112 57.116 6.2373C57.7687 5.33912 56.3126 4.47836 55.6473 5.36406Z" fill="#5A1647"/>
<path d="M58.1328 3.14359C57.9194 3.16907 57.7228 3.27137 57.5802 3.43113C57.4376 3.59089 57.3589 3.79704 57.3589 4.01059C57.3589 4.22414 57.4376 4.43029 57.5802 4.59004C57.7228 4.7498 57.9194 4.8521 58.1328 4.87758C58.3461 4.8521 58.5427 4.7498 58.6853 4.59004C58.8279 4.43029 58.9066 4.22414 58.9066 4.01059C58.9066 3.79704 58.8279 3.59089 58.6853 3.43113C58.5427 3.27137 58.3461 3.16907 58.1328 3.14359Z" fill="#5A1647"/>
</svg>
