<svg width="64" height="77" viewBox="0 0 64 77" fill="none" xmlns="http://www.w3.org/2000/svg">
<g clip-path="url(#clip0_521_3028)">
<path d="M63.675 40.2638C62.9451 33.5115 60.2381 27.1307 55.8985 21.9334C56.6826 20.9975 57.5173 20.1058 58.399 19.2626C58.7939 19.6788 59.2596 20.0201 59.7742 20.2705C60.7994 20.598 61.4745 19.6784 62.0746 18.9225C62.6748 18.1666 63.55 17.0453 63.0874 15.9493C62.6248 14.8533 60.7494 13.5934 59.7367 12.7368C58.724 11.8801 57.2362 10.3179 55.7859 9.83918C54.3356 9.36045 53.5855 10.2927 52.8354 11.2502C52.2352 11.9935 51.5226 12.6108 51.9477 13.5808C52.19 14.0528 52.5115 14.479 52.8979 14.8407C52.1977 15.5965 51.5101 16.3398 50.8475 17.1083C47.1068 14.6066 42.8704 12.9558 38.4326 12.2706C38.37 11.5273 38.3325 10.7966 38.3325 10.0534C38.9072 10.0788 39.4821 10.0064 40.0329 9.83918C41.4707 9.32265 41.4956 8.57936 41.5832 7.01719C41.6707 5.17786 41.9332 2.07871 40.3329 0.844085C38.4075 -0.592106 33.9692 0.151189 31.7813 0.138591C27.4679 0.277171 21.4167 -1.05823 21.1667 4.66134C21.1667 5.80777 20.7541 8.44078 21.7918 9.34785C22.6458 9.9211 23.6541 10.2158 24.6799 10.1919C24.6799 11.0108 24.6799 11.8297 24.6799 12.7116C24.6671 12.7781 24.6671 12.8466 24.6799 12.9131C19.6407 14.175 14.9718 16.6267 11.0587 20.0659C7.14568 23.5051 4.10077 27.8331 2.17548 32.6923C-2.71297 45.0889 0.362612 61.1515 11.0272 69.6805C15.0405 72.893 19.4038 75.6898 24.5173 76.4583C32.3189 77.6173 40.9455 77.189 48.0219 73.3717C52.9779 70.5537 57.1588 66.5356 60.1868 61.6806C63.8125 55.6965 64.5002 47.0164 63.675 40.2638ZM55.4359 11.6659C56.2735 11.7919 57.8364 13.4801 58.474 13.9714C59.3383 14.5706 60.1349 15.2634 60.8494 16.0375C61.4746 16.8564 60.9494 17.8642 60.1743 18.4689C58.9696 17.6198 57.8134 16.7029 56.7111 15.7225C55.5784 14.9371 54.5491 14.01 53.648 12.9635C54.1106 12.321 54.8357 11.5651 55.4359 11.6659ZM54.1856 16.0123C54.7482 16.4406 55.3109 16.8312 55.7734 17.1965L57.0237 18.1666C56.261 18.9728 55.4609 19.7665 54.7607 20.6106C54.2106 20.0437 53.673 19.4768 53.0854 18.9351C52.7979 18.6831 52.4978 18.4563 52.1977 18.217C52.8228 17.4737 53.5105 16.743 54.1856 16.0123ZM22.842 6.9794C22.7108 6.22506 22.7108 5.45347 22.842 4.69913C23.2046 2.73382 24.2798 2.48185 26.2927 2.1795C28.0907 1.99026 29.8988 1.91452 31.7062 1.95273C33.3191 1.95273 34.9819 1.87714 36.6072 2.02832C38.2325 2.17949 39.1077 2.10391 39.6578 3.88025C39.9352 4.91964 39.9822 6.00784 39.7953 7.06758C39.1827 8.71794 37.8574 8.20142 36.0446 8.23921C34.2317 8.27701 32.1563 8.3778 30.2059 8.39039C28.2556 8.40299 23.5672 9.0329 22.842 6.9794ZM26.3552 10.2675C27.6054 10.2675 28.8557 10.1415 29.6558 10.1289C31.5937 10.1289 33.5191 10.0534 35.457 10.003H36.5572C36.5572 10.6833 36.5572 11.3636 36.6447 12.0439C35.3944 11.8927 34.0192 11.7793 32.7315 11.7415C30.6052 11.793 28.4879 12.0376 26.4052 12.4722C26.3677 11.7541 26.3677 11.0108 26.3052 10.2675H26.3552ZM60.6994 56.3264C59.0241 61.9704 54.5107 66.5561 49.8973 70.0206C44.3087 74.241 37.3948 75.2867 30.5185 75.1481C25.0603 75.2385 19.7118 73.5992 15.228 70.4616C10.0955 66.9489 6.13771 61.9536 3.87503 56.1321C1.61236 50.3107 1.15063 43.9357 2.55054 37.8449C4.17592 30.9757 8.03728 24.8527 13.5188 20.4527C19.0002 16.0527 25.7861 13.629 32.7939 13.5682C46.7842 13.858 57.9739 22.387 61.2995 36.2449C62.8026 42.8808 62.5961 49.7938 60.6994 56.3264Z" fill="#5A1647"/>
<path d="M48.2595 23.483H48.172L48.0845 23.3948C43.3996 19.9776 37.7528 18.1599 31.9695 18.2075C26.1862 18.2551 20.5696 20.1655 15.9407 23.6594C11.5547 27.142 8.28949 31.8547 6.55636 37.2037C4.82324 42.5527 4.69971 48.299 6.20133 53.7186C9.05189 63.9483 22.567 72.2631 32.7565 71.6458C35.9571 71.4442 39.7829 70.8899 42.5459 69.1262C47.3336 66.0392 51.4506 62.0063 54.6483 57.2713C62.1998 45.8951 58.5115 31.5458 48.2595 23.483ZM56.5237 39.3189C57.1466 43.1 56.8709 46.976 55.719 50.6289C54.5671 54.2818 52.572 57.6074 49.8974 60.3326C46.3592 64.1121 42.6209 67.8915 37.4824 69.0632C31.9624 70.5053 26.1057 69.7991 21.0792 67.0853C15.3031 63.8349 8.87684 58.5563 7.55158 51.7029C6.80261 48.1231 6.76274 44.4295 7.43429 40.8342C8.10585 37.2388 9.47559 33.8126 11.4649 30.7521C19.654 18.8973 35.6571 16.7556 47.1468 24.831C51.7102 28.4467 55.4985 33.4607 56.5237 39.3189Z" fill="#5A1647"/>
<path d="M43.6459 30.8529L33.644 41.07C33.045 40.5215 32.2716 40.2062 31.4626 40.1808C30.6537 40.1554 29.8623 40.4216 29.2306 40.9314C27.7428 42.1913 27.1177 45.1644 28.518 46.651C29.2567 47.3595 30.2202 47.7821 31.2381 47.8444C32.2561 47.9066 33.2632 47.6044 34.0816 46.9912C34.7162 46.4376 35.1332 45.6734 35.257 44.8368C35.3809 44.0003 35.2034 43.1467 34.7567 42.4306L44.8712 32.1001C45.6588 31.2939 44.4336 30.0592 43.6459 30.8529ZM30.0558 45.6432C29.2931 45.0637 29.4557 43.4511 29.9558 42.7078C30.1225 42.4737 30.3421 42.283 30.5964 42.1514C30.8508 42.0198 31.1326 41.9512 31.4185 41.9512C31.7045 41.9512 31.9863 42.0198 32.2407 42.1514C32.495 42.283 32.7147 42.4737 32.8813 42.7078C32.8813 42.7078 32.8813 42.7078 32.9564 42.7834C33.0314 42.859 32.9564 42.7834 32.9564 42.8842C34.7317 44.9503 32.0062 47.1424 30.0558 45.6432Z" fill="#5A1647"/>
<path d="M21.9292 26.3302C16.0781 29.4671 13.065 35.3127 11.5647 41.5992C11.3021 42.6952 12.9775 43.1739 13.24 42.0653C14.6403 36.1945 17.3408 30.7269 22.8044 27.8419C23.8046 27.3128 22.9169 25.801 21.9292 26.3302Z" fill="#5A1647"/>
<path d="M11.9648 45.6936C11.7524 45.7193 11.5566 45.8226 11.4145 45.9839C11.2725 46.1453 11.1941 46.3535 11.1941 46.5691C11.1941 46.7848 11.2725 46.993 11.4145 47.1543C11.5566 47.3157 11.7524 47.419 11.9648 47.4447C12.1773 47.419 12.3731 47.3157 12.5152 47.1543C12.6572 46.993 12.7356 46.7848 12.7356 46.5691C12.7356 46.3535 12.6572 46.1453 12.5152 45.9839C12.3731 45.8226 12.1773 45.7193 11.9648 45.6936Z" fill="#5A1647"/>
<path d="M32.4815 6.26129C32.4189 5.41721 32.3689 4.57313 32.3064 3.74165C32.2189 2.62042 30.4811 2.60782 30.5561 3.74165L30.7436 6.26129C30.8186 7.38252 32.5565 7.38252 32.4815 6.26129Z" fill="#5A1647"/>
<path d="M36.9697 5.58098C36.9697 4.90068 36.9697 4.20778 36.9697 3.52748C36.9697 2.40625 35.1818 2.39365 35.2193 3.52748L35.2943 5.58098C35.2693 6.71482 37.0072 6.71482 36.9697 5.58098Z" fill="#5A1647"/>
<path d="M27.4554 6.26128C27.3511 5.51024 27.3217 4.75054 27.3679 3.99361C27.4429 2.87237 25.6925 2.87237 25.63 3.99361C25.576 4.9072 25.6221 5.82402 25.7676 6.72742C25.9426 7.83606 27.618 7.35732 27.4554 6.26128Z" fill="#5A1647"/>
</g>
<defs>
<clipPath id="clip0_521_3028">
<rect width="64" height="77" fill="white"/>
</clipPath>
</defs>
</svg>
