<svg width="63" height="67" viewBox="0 0 63 67" fill="none" xmlns="http://www.w3.org/2000/svg">
<g clip-path="url(#clip0_521_3022)">
<path d="M52.9397 14.781C50.3458 13.8491 47.5276 13.7521 44.8763 14.5033C45.0396 14.3392 45.2028 14.2003 45.3536 14.0236C46.7887 12.2032 47.7606 10.0586 48.1852 7.77561C48.6098 5.49261 48.4742 3.14001 47.7902 0.92153C47.76 0.854203 47.722 0.790647 47.6771 0.732182C47.6761 0.627547 47.6531 0.524317 47.6098 0.429197C47.5664 0.334077 47.5035 0.249216 47.4253 0.180142C47.3471 0.111068 47.2553 0.0593161 47.1559 0.0282932C47.0564 -0.00272972 46.9516 -0.0123432 46.8482 7.67955e-05C43.5385 0.309698 40.3919 1.58801 37.7978 3.67676C35.2037 5.76551 33.2761 8.57297 32.2537 11.7516C30.6025 7.17051 27.6505 3.17684 23.7633 0.265157C23.6651 0.178271 23.5437 0.122349 23.4141 0.104391C23.2846 0.0864322 23.1527 0.10723 23.0348 0.164175H22.9594L22.8087 0.265157C22.8087 0.265157 22.8087 0.265147 22.7082 0.353504C21.4254 2.05801 20.5372 4.02872 20.1083 6.12198C20.0689 6.25759 20.0656 6.40122 20.0986 6.53854C20.1317 6.67586 20.2 6.80206 20.2968 6.90456C20.4041 7.04791 20.5534 7.15386 20.7238 7.20751C23.0889 7.93282 25.2326 9.24868 26.9545 11.0322C28.6765 12.8157 29.9206 15.0088 30.5707 17.4065C25.1574 16.4976 20.5228 13.0643 14.7202 13.7964C12.0034 14.2136 9.43873 15.3253 7.27237 17.025C5.10601 18.7248 3.4106 20.9555 2.34879 23.5031C-3.69247 36.6305 3.26565 52.3706 11.7938 62.6958C16.2525 68.1108 20.3972 67.5176 26.5139 65.4854C30.9475 64.0086 33.9493 64.8543 38.2573 65.9398C40.6901 66.7141 43.2503 67.0014 45.7932 66.7855C51.734 65.8388 55.5647 58.5935 57.6999 53.6329C60.8398 46.3371 63.2764 38.852 63.0378 30.8115C62.7992 24.1973 59.3829 17.2676 52.9397 14.781ZM46.2202 1.84296C46.7769 3.84289 46.8236 5.95148 46.3561 7.97434C45.8886 9.99719 44.9218 11.8692 43.5449 13.4178C40.9451 16.0937 36.9385 16.9899 33.3213 17.5201C33.3344 17.4449 33.3344 17.368 33.3213 17.2929C33.1647 13.5742 34.3932 9.93053 36.7668 7.07355C39.1404 4.21658 42.4887 2.3516 46.1574 1.84296H46.2202ZM22.0175 5.88215C22.3261 4.60809 22.8303 3.39014 23.5121 2.27212C27.0819 5.20644 29.6687 9.17204 30.9224 13.6323C28.9933 10.0204 25.797 7.25808 21.9546 5.88215H22.0175ZM49.737 62.7589C43.9092 68.2245 37.4284 62.4181 30.8973 62.6832C27.7824 62.822 25.0318 64.463 22.1054 65.2077C16.7926 66.5457 13.6526 62.6832 11.0151 58.6566C6.54376 51.8531 2.42413 44.4816 1.89662 36.1887C1.36911 27.8957 4.97377 17.4317 14.1424 15.7277C20.7112 14.4654 25.7477 18.9212 31.99 19.4008C32.1134 19.434 32.2433 19.434 32.3667 19.4008C34.1653 19.3315 35.9452 19.0085 37.6544 18.4415C38.4826 18.2236 39.2964 17.9538 40.091 17.6336C43.8589 16.3714 47.4636 15.0082 51.3195 16.0685C61.7692 18.9338 62.3973 32.0106 60.4128 40.7454C58.6419 48.2431 55.3637 57.4196 49.6741 62.7589H49.737Z" fill="#5A1647"/>
<path d="M16.0262 20.8776C10.1105 23.3263 7.1213 30.8114 8.12609 36.8449C8.30193 37.9557 9.9975 37.4887 9.8091 36.3779C8.98015 31.4047 11.4921 24.6264 16.516 22.569C17.5083 22.1524 17.0686 20.4484 16.0262 20.8776Z" fill="#5A1647"/>
<path d="M9.28162 40.4802C9.06814 40.506 8.87147 40.6095 8.72879 40.7712C8.58611 40.9328 8.50732 41.1414 8.50732 41.3575C8.50732 41.5736 8.58611 41.7821 8.72879 41.9438C8.87147 42.1054 9.06814 42.209 9.28162 42.2347C9.49509 42.209 9.69177 42.1054 9.83444 41.9438C9.97712 41.7821 10.0559 41.5736 10.0559 41.3575C10.0559 41.1414 9.97712 40.9328 9.83444 40.7712C9.69177 40.6095 9.49509 40.506 9.28162 40.4802Z" fill="#5A1647"/>
</g>
<defs>
<clipPath id="clip0_521_3022">
<rect width="63" height="67" fill="white"/>
</clipPath>
</defs>
</svg>
