<svg width="85" height="70" viewBox="0 0 85 70" fill="none" xmlns="http://www.w3.org/2000/svg">
<g clip-path="url(#clip0_521_3016)">
<path d="M80.9038 8.93394C74.9503 3.3371 64.0753 5.51803 56.0103 5.4392C53.3431 2.24663 48.7868 0.499257 42.992 -0.0262683C40.3272 -0.0729194 37.6897 0.425491 35.3135 1.42474C32.9373 2.424 30.8959 3.89319 29.3704 5.70196C23.6868 5.70196 17.8762 5.32096 12.2244 5.70196C9.04918 5.91217 6.08035 6.4377 3.96884 8.44783C1.96549 10.6571 0.854463 13.3326 0.793646 16.0942C0.46025 20.1145 0.47613 24.2399 0.301494 28.2733C0.0951066 32.7928 0.523739 37.2992 0.380855 41.8056C0.237971 47.0608 -0.238297 52.3161 0.0950988 57.5713C0.380866 61.9201 1.06354 67.7928 7.14404 68.8833C17.3205 70.7095 29.037 69.6321 39.3723 69.5008C50.4061 69.3562 61.4558 70.0131 72.4578 69.3957C80.7133 68.9227 84.2537 67.1359 84.2854 59.9362C84.2854 50.4242 84.2854 40.9253 84.4283 31.4133C84.5871 24.6997 86.8732 14.5702 80.9038 8.93394ZM42.992 1.83935C50.2791 2.50939 55.9944 5.60999 56.3437 12.1265C56.693 18.643 51.057 24.5552 42.7697 24.5158C39.1059 24.4496 35.6128 23.221 33.0126 21.0839C30.4124 18.9468 28.9039 16.0645 28.7989 13.033C28.8422 11.5267 29.2436 10.0422 29.9804 8.66428C30.7172 7.28639 31.7748 6.04214 33.0929 5.00263C34.4109 3.96311 35.9636 3.1487 37.6621 2.60594C39.3607 2.06317 41.1718 1.80267 42.992 1.83935ZM82.3168 27.9448C82.1422 35.1051 82.1104 42.2785 82.0945 49.4388C82.0945 52.7365 82.0945 56.0079 82.0945 59.3318C82.3021 60.9815 82.1625 62.6485 81.6818 64.2586C79.9672 67.7008 75.1091 67.5038 71.5529 67.6746C63.2656 68.0818 54.9784 67.7797 46.707 67.6746C38.4356 67.5695 30.1166 67.9767 21.8134 67.8059C17.8252 67.8262 13.839 67.6551 9.87471 67.2936C4.66739 66.6498 3.23855 63.7594 2.58764 60.015C1.30168 52.6708 2.76226 44.985 2.667 37.6014C2.58762 30.5856 2.66703 23.583 3.00043 16.5803C3.33383 10.7339 6.90592 7.73837 14.1136 7.47561C18.7335 7.30481 23.4169 7.47561 28.0527 7.47561C27.1704 8.97003 26.6628 10.5968 26.5604 12.2579C26.4831 15.9217 28.1523 19.4634 31.2067 22.1164C34.2611 24.7695 38.455 26.3205 42.8809 26.4339C47.1298 26.3444 51.1638 24.8692 54.1046 22.3298C57.0454 19.7903 58.6548 16.3922 58.5822 12.8754C58.5833 10.956 58.1134 9.05634 57.201 7.29168C59.9158 7.29168 62.6147 7.16029 65.3137 7.21284C68.8223 7.27854 73.6009 6.73987 76.665 8.29017C84.2061 12.1265 82.4597 21.6648 82.3168 27.9448Z" fill="#5A1647"/>
<path d="M40.6108 14.5833C40.8812 14.8076 41.2078 14.98 41.5675 15.0886C41.9272 15.1971 42.3113 15.2391 42.6927 15.2115C43.0741 15.184 43.4435 15.0876 43.775 14.9291C44.1065 14.7706 44.3921 14.5539 44.6115 14.2943C44.9824 13.8899 45.1831 13.3962 45.1831 12.8885C45.1831 12.3808 44.9824 11.8871 44.6115 11.4827C44.5987 11.3811 44.5608 11.2828 44.5004 11.1937C45.0878 9.87987 45.6752 8.48723 46.2467 7.12086C46.723 6.01726 44.6591 5.53115 44.1194 6.63475C43.5796 7.73836 43.008 9.26238 42.4365 10.5762C39.9916 10.5893 38.0547 12.9936 40.6108 14.5833ZM42.5159 12.3367C42.6067 12.3794 42.7024 12.4146 42.8016 12.4418C43.4684 12.8491 42.2777 13.8739 41.6903 12.9148C41.4522 12.4944 42.0078 12.3104 42.5159 12.3367Z" fill="#5A1647"/>
<path d="M75.0301 36.8393C75.1571 33.9358 75.8874 29.9024 74.6808 27.1171C74.3093 26.2324 73.6422 25.453 72.7571 24.8693C71.8719 24.2856 70.8049 23.9216 69.6799 23.8195C67.0603 23.491 61.6307 23.3333 59.1223 24.3975C57.884 24.923 56.9632 26.3682 55.9471 27.1171C53.6464 28.7339 50.9322 29.8974 48.0091 30.5199C40.7538 32.1884 33.7207 30.1783 28.2594 26.2237C25.0842 23.8589 16.2095 23.7932 12.5422 25.2778C7.62064 27.2748 9.28762 32.8979 9.367 36.524C9.58927 43.369 8.50972 50.8577 9.93856 57.545C10.6054 60.6588 12.3993 62.3536 16.1619 62.9448C21.2773 63.5068 26.4331 63.779 31.5934 63.7594C36.6896 63.9565 41.8016 63.7594 46.8978 63.5492C51.5813 63.3521 56.2647 63.1025 60.9481 63.0499C64.6948 63.0499 68.2669 63.7068 71.5373 61.9857C76.951 59.1348 75.0936 53.3671 74.8713 48.7556C74.7602 44.8142 74.9189 40.8465 75.0301 36.8393ZM72.5058 58.3333C71.0135 61.4865 67.6318 61.1712 63.9804 61.2894C54.931 61.5522 45.8341 62.0514 36.769 62.0646C32.3237 62.0646 27.9737 61.6573 23.5443 61.4339C19.5435 61.2237 14.0187 62.3142 12.4311 58.3465C11.2563 55.4298 11.8119 51.646 11.8595 48.598C11.8595 45.1032 11.8595 41.6085 11.7167 38.0875C11.5738 34.5664 9.66867 28.4309 14.6061 26.7098C17.2098 25.8033 24.5762 25.8953 26.7195 27.485C31.6728 31.0323 37.8327 33.4628 44.5641 32.9242C47.7535 32.6473 50.8481 31.8621 53.6769 30.6119C56.5345 29.2981 58.6778 26.5916 61.7101 25.7902C63.5148 25.502 65.3628 25.4488 67.1873 25.6325C69.9815 25.1595 71.8443 26.3595 72.7757 29.2324C72.7757 30.0732 72.8868 30.914 72.9027 31.7549C72.9821 35.3942 72.6011 39.0203 72.5534 42.6595C72.5058 46.2988 72.8392 49.6096 72.9503 53.0912C73.2302 54.8455 73.0791 56.6286 72.5058 58.3333Z" fill="#5A1647"/>
<path d="M33.3077 12.2185C33.3764 11.0914 33.7695 9.99425 34.4544 9.01841C35.1393 8.04257 36.096 7.21632 37.245 6.60849C37.4976 6.48653 37.6814 6.28652 37.7558 6.05245C37.8302 5.81839 37.7892 5.56943 37.6419 5.36036C37.4945 5.1513 37.2528 4.99924 36.97 4.93764C36.6871 4.87605 36.3863 4.90995 36.1337 5.03191C34.656 5.80565 33.4255 6.86287 32.5466 8.11391C31.6678 9.36496 31.1664 10.7729 31.0851 12.2185C30.974 13.3878 33.1807 13.3878 33.3077 12.2185Z" fill="#5A1647"/>
<path d="M32.0534 14.0972C31.7836 14.1241 31.535 14.2318 31.3546 14.4001C31.1743 14.5683 31.0747 14.7854 31.0747 15.0103C31.0747 15.2352 31.1743 15.4524 31.3546 15.6206C31.535 15.7889 31.7836 15.8966 32.0534 15.9234C32.3233 15.8966 32.5719 15.7889 32.7522 15.6206C32.9326 15.4524 33.0322 15.2352 33.0322 15.0103C33.0322 14.7854 32.9326 14.5683 32.7522 14.4001C32.5719 14.2318 32.3233 14.1241 32.0534 14.0972Z" fill="#333333"/>
</g>
<defs>
<clipPath id="clip0_521_3016">
<rect width="85" height="70" fill="white"/>
</clipPath>
</defs>
</svg>
