<svg width="34" height="20" viewBox="0 0 34 20" fill="none" xmlns="http://www.w3.org/2000/svg">
<path d="M10.1914 19.6598H6.00517C5.02674 19.6598 4.23218 18.8003 4.23218 17.7418V13.0568C4.23218 12.8117 4.41604 12.6128 4.64259 12.6128C4.86914 12.6128 5.05301 12.8117 5.05301 13.0568V17.7418C5.05301 18.3101 5.47984 18.7719 6.00517 18.7719H10.1914C10.7167 18.7719 11.1436 18.3101 11.1436 17.7418V1.91804C11.1436 1.34973 10.7167 0.887978 10.1914 0.887978H6.00517C5.47984 0.887978 5.05301 1.34973 5.05301 1.91804V6.15546C5.05301 6.40054 4.86914 6.59945 4.64259 6.59945C4.41604 6.59945 4.23218 6.40054 4.23218 6.15546V1.91804C4.23218 0.859566 5.02674 0 6.00517 0H10.1914C11.1698 0 11.9644 0.859566 11.9644 1.91804V17.7418C11.9644 18.8003 11.1698 19.6598 10.1914 19.6598Z" fill="#5A1647"/>
<path d="M4.64261 17.2801H1.76971C0.794562 17.2801 0 16.4205 0 15.362V4.29782C0 3.23935 0.794562 2.37979 1.76971 2.37979H4.64261C4.86916 2.37979 5.05302 2.5787 5.05302 2.82378C5.05302 3.06886 4.86916 3.26777 4.64261 3.26777H1.76971C1.24438 3.26777 0.820829 3.72952 0.820829 4.29782V15.3656C0.820829 15.9339 1.24766 16.3956 1.76971 16.3956H4.64261C4.86916 16.3956 5.05302 16.5945 5.05302 16.8396C5.05302 17.0847 4.86916 17.2801 4.64261 17.2801Z" fill="#5A1647"/>
<path d="M27.7505 19.6598H23.5643C22.5858 19.6598 21.7913 18.8003 21.7913 17.7418V1.91804C21.7913 0.859566 22.5858 0 23.5643 0H27.7505C28.7289 0 29.5235 0.859566 29.5235 1.91804V6.15546C29.5235 6.40054 29.3396 6.59945 29.1131 6.59945C28.8865 6.59945 28.7026 6.40054 28.7026 6.15546V1.91804C28.7026 1.34973 28.2758 0.887978 27.7505 0.887978H23.5643C23.0389 0.887978 22.6121 1.34973 22.6121 1.91804V17.7418C22.6121 18.3101 23.0389 18.7719 23.5643 18.7719H27.7505C28.2758 18.7719 28.7026 18.3101 28.7026 17.7418V13.0568C28.7026 12.8117 28.8865 12.6128 29.1131 12.6128C29.3396 12.6128 29.5235 12.8117 29.5235 13.0568V17.7418C29.5235 18.8003 28.7289 19.6598 27.7505 19.6598Z" fill="#5A1647"/>
<path d="M31.9861 17.28H29.1165C28.8899 17.28 28.7061 17.0811 28.7061 16.836C28.7061 16.591 28.8899 16.392 29.1165 16.392H31.9861C32.5114 16.392 32.9382 15.9303 32.9382 15.362V4.29779C32.9382 3.72948 32.5114 3.26774 31.9861 3.26774H29.1165C28.8899 3.26774 28.7061 3.06883 28.7061 2.82375C28.7061 2.57867 28.8899 2.37976 29.1165 2.37976H31.9861C32.9645 2.37976 33.7591 3.23932 33.7591 4.29779V15.3655C33.7591 16.4205 32.9645 17.28 31.9861 17.28Z" fill="#5A1647"/>
<path d="M22.2018 7.77158H11.554C11.3274 7.77158 11.1436 7.57268 11.1436 7.32759C11.1436 7.08251 11.3274 6.88361 11.554 6.88361H22.2018C22.4283 6.88361 22.6122 7.08251 22.6122 7.32759C22.6122 7.57268 22.4283 7.77158 22.2018 7.77158Z" fill="#5A1647"/>
<path d="M22.2018 11.8989H11.554C11.3274 11.8989 11.1436 11.7 11.1436 11.4549C11.1436 11.2098 11.3274 11.0109 11.554 11.0109H22.2018C22.4283 11.0109 22.6122 11.2098 22.6122 11.4549C22.6122 11.7 22.4283 11.8989 22.2018 11.8989Z" fill="#5A1647"/>
</svg>
