<svg width="33" height="37" viewBox="0 0 33 37" fill="none" xmlns="http://www.w3.org/2000/svg">
<path d="M13.5228 36.244C12.4793 36.244 11.2918 35.8841 9.98843 35.1645C9.8405 35.0845 -4.64496 26.6483 1.53225 14.8376C3.64729 10.7995 8.97289 9.75993 11.8436 10.5916C13.2749 11.0034 14.1745 11.871 14.8942 12.5707C15.5099 13.1664 15.9977 13.6382 16.5934 13.6382C17.1332 13.6382 17.4251 13.3463 17.9408 12.7826C18.4486 12.2308 19.0803 11.5391 20.2398 11.1073C23.9901 9.70397 28.8359 10.3117 31.2028 14.8376C37.3801 26.6483 22.8946 35.0805 22.7467 35.1645C20.0199 36.6718 17.7809 36.5918 16.3655 34.9606C15.6259 35.8162 14.6623 36.244 13.5228 36.244ZM9.71655 11.3192C7.15371 11.3192 3.89118 12.4827 2.41585 15.3054C-3.32156 26.2725 10.3323 34.2169 10.4722 34.2929C12.2314 35.2644 14.6063 35.9761 15.9457 33.857C16.1297 33.5652 16.6094 33.5652 16.7894 33.857C18.1288 35.9761 20.5037 35.2644 22.2629 34.2929C22.4028 34.2169 36.0566 26.2765 30.3152 15.3054C28.0882 11.0474 23.6822 10.8874 20.5876 12.0469C19.6561 12.3947 19.1563 12.9385 18.6765 13.4623C18.1447 14.042 17.593 14.6417 16.5934 14.6417C15.5939 14.6417 14.9142 13.986 14.1985 13.2943C13.5228 12.6426 12.7552 11.903 11.5637 11.5591C11.032 11.4032 10.4002 11.3192 9.71655 11.3192Z" fill="#5A1647"/>
<path d="M4.39483 16.8408C4.31487 16.8408 4.2389 16.8208 4.16294 16.7848C3.91905 16.6569 3.82309 16.353 3.95103 16.1091C4.6907 14.6937 6.21401 13.6462 8.12515 13.2344C8.39303 13.1744 8.66091 13.3464 8.72088 13.6182C8.78086 13.8861 8.60893 14.154 8.33705 14.214C6.71779 14.5658 5.44236 15.4254 4.83863 16.5769C4.74668 16.7448 4.57475 16.8408 4.39483 16.8408Z" fill="#5A1647"/>
<path d="M8.16517 30.3147C8.04522 30.3147 7.92527 30.2707 7.82931 30.1868C4.84666 27.504 1.61612 23.2179 3.15943 18.0402C3.23939 17.7764 3.51926 17.6284 3.78314 17.7044C4.04702 17.7844 4.19895 18.0602 4.11899 18.3281C2.72362 23.002 5.73026 26.9522 8.50101 29.4431C8.70492 29.627 8.72091 29.9429 8.53699 30.1508C8.44104 30.2587 8.3051 30.3147 8.16517 30.3147Z" fill="#5A1647"/>
<path d="M14.9542 13.8181C14.9143 13.8181 14.8743 13.8142 14.8343 13.8022C14.5664 13.7342 14.4025 13.4623 14.4704 13.1944L15.454 9.2682C15.51 9.0443 15.7099 8.88837 15.9378 8.88837H17.3412C17.5691 8.88837 17.765 9.0403 17.8249 9.2602L18.8085 12.9825C18.8805 13.2504 18.7205 13.5223 18.4527 13.5942C18.1848 13.6662 17.9129 13.5063 17.8409 13.2384L16.9573 9.88792H16.3296L15.442 13.4343C15.382 13.6662 15.1781 13.8181 14.9542 13.8181Z" fill="#5A1647"/>
<path d="M17.8769 11.3273C17.8169 11.3273 17.7529 11.3153 17.6929 11.2913C17.561 11.2393 17.4571 11.1354 17.4091 10.9994L16.8693 9.56406C16.8613 9.54007 16.8533 9.51209 16.8493 9.4881C16.8333 9.41613 15.478 2.26736 22.4228 0.0243779C22.6827 -0.0595842 22.9626 0.0803643 23.0505 0.336249C25.4974 7.46503 18.1767 11.2313 18.1048 11.2673C18.0328 11.3073 17.9528 11.3273 17.8769 11.3273ZM17.8209 9.25622L18.1367 10.1038C19.5961 9.21224 23.6743 6.20159 22.2509 1.14787C16.8693 3.20694 17.7209 8.70047 17.8209 9.25622Z" fill="#5A1647"/>
</svg>
