<svg width="44" height="35" viewBox="0 0 44 35" fill="none" xmlns="http://www.w3.org/2000/svg">
<path d="M39.1896 34.5113H6.75491C3.52281 34.5113 0.892578 31.8811 0.892578 28.649V8.23273C0.892578 6.76359 2.08684 5.56933 3.55598 5.56933H4.28107C5.35212 5.56933 6.21938 6.44134 6.21938 7.50765C6.21938 7.64509 6.33312 7.75881 6.47056 7.75881H10.7453V3.69264C10.7453 1.71642 12.3518 0.105103 14.3328 0.105103C16.1811 0.105103 17.7355 1.6311 17.9488 3.65472C19.4937 18.2134 31.6828 22.2512 38.8105 23.3601C41.8199 23.8293 43.9999 26.2415 43.9999 29.0992V29.7011C43.9999 32.355 41.8436 34.5113 39.1896 34.5113ZM3.55598 6.75411C2.74085 6.75411 2.07737 7.41759 2.07737 8.23273V28.649C2.07737 31.2271 4.17681 33.3265 6.75491 33.3265H39.1896C41.1896 33.3265 42.8151 31.701 42.8151 29.7011V29.0992C42.8151 26.8339 41.0521 24.9145 38.6257 24.5354C31.1615 23.3696 18.399 19.1281 16.7687 3.78269C16.6171 2.36568 15.5697 1.29463 14.3281 1.29463C13.0058 1.29463 11.9253 2.3704 11.9253 3.69736V8.35595C11.9253 8.68295 11.6599 8.94834 11.3329 8.94834H6.47056C5.67912 8.94834 5.03459 8.30383 5.03459 7.5124C5.03459 7.09535 4.69812 6.75886 4.28107 6.75886H3.55598V6.75411Z" fill="#5A1647"/>
<path d="M41.289 25.6206C41.2748 25.6206 41.2653 25.6206 41.2511 25.6206C17.9866 24.0994 10.8636 8.75402 10.7973 8.59763C10.6646 8.29906 10.7973 7.94835 11.0959 7.81566C11.3944 7.68296 11.7451 7.81566 11.8778 8.11423C11.9442 8.26114 18.8112 22.9667 41.3316 24.4406C41.6586 24.4596 41.9051 24.7439 41.8861 25.0709C41.8624 25.379 41.6018 25.6206 41.289 25.6206Z" fill="#5A1647"/>
<path d="M6.62221 15.0097H1.48497C1.15797 15.0097 0.892578 14.7443 0.892578 14.4173V11.1662C0.892578 10.8392 1.15797 10.5739 1.48497 10.5739H6.62221C7.84491 10.5739 8.84013 11.5691 8.84013 12.7918C8.84013 14.0145 7.84491 15.0097 6.62221 15.0097ZM2.07737 13.8249H6.62221C7.19091 13.8249 7.65535 13.3605 7.65535 12.7918C7.65535 12.2231 7.19091 11.7586 6.62221 11.7586H2.07737V13.8249Z" fill="#5A1647"/>
<path d="M6.62221 21.1517H1.48497C1.15797 21.1517 0.892578 20.8863 0.892578 20.5593V17.3082C0.892578 16.9812 1.15797 16.7158 1.48497 16.7158H6.62221C7.84491 16.7158 8.84013 17.711 8.84013 18.9337C8.84013 20.1564 7.84491 21.1517 6.62221 21.1517ZM2.07737 19.9669H6.62221C7.19091 19.9669 7.65535 19.5024 7.65535 18.9337C7.65535 18.365 7.19091 17.9006 6.62221 17.9006H2.07737V19.9669Z" fill="#5A1647"/>
<path d="M33.4837 29.81C20.6785 29.81 2.35696 25.4263 1.34278 25.1799C1.02525 25.1041 0.830949 24.7818 0.906776 24.4643C0.982602 24.1467 1.30486 23.9524 1.62239 24.0283C1.94939 24.1088 34.2751 31.8431 42.8862 27.0803C43.1753 26.9239 43.5307 27.0234 43.6918 27.3125C43.8482 27.5968 43.7487 27.9618 43.4596 28.1182C41.2464 29.3456 37.6589 29.81 33.4837 29.81Z" fill="#5A1647"/>
<path d="M16.0673 17.9053C15.8588 17.9053 15.655 17.7963 15.5507 17.602C15.3944 17.3176 15.4939 16.9575 15.783 16.7963L20.9866 13.9007C21.2709 13.7443 21.6311 13.8438 21.7922 14.1329C21.9486 14.4173 21.8491 14.7775 21.56 14.9386L16.3564 17.8342C16.2616 17.8769 16.1621 17.9053 16.0673 17.9053Z" fill="#5A1647"/>
<path d="M18.361 21.1517C18.1573 21.1517 17.963 21.0474 17.8492 20.8626C17.6833 20.583 17.7734 20.218 18.0577 20.0522L23.5315 16.8011C23.8111 16.6353 24.176 16.7253 24.3419 17.0096C24.5077 17.2893 24.4177 17.6542 24.1333 17.8201L18.6549 21.0711C18.5648 21.128 18.4606 21.1517 18.361 21.1517Z" fill="#5A1647"/>
<path d="M21.2661 23.7155C21.067 23.7155 20.8727 23.616 20.7637 23.4359C20.5931 23.1563 20.6784 22.7914 20.9533 22.6208L26.5407 19.1517C26.8156 18.9811 27.1853 19.0617 27.3559 19.3413C27.5265 19.6209 27.4412 19.9858 27.1663 20.1564L21.5789 23.6255C21.4841 23.6871 21.3751 23.7155 21.2661 23.7155Z" fill="#5A1647"/>
<path d="M26.3133 25.6206C26.1285 25.6206 25.9436 25.5306 25.8252 25.3695C25.6356 25.0994 25.7019 24.7297 25.9721 24.5449L30.5928 21.3128C30.8629 21.1232 31.2325 21.1896 31.4174 21.4597C31.6069 21.7298 31.5406 22.0995 31.2705 22.2843L26.6498 25.5164C26.5503 25.5827 26.4318 25.6206 26.3133 25.6206Z" fill="#5A1647"/>
<path d="M17.7261 6.7067H11.3378C11.0108 6.7067 10.7454 6.44131 10.7454 6.11431C10.7454 5.7873 11.0108 5.52191 11.3378 5.52191H17.7261C18.0531 5.52191 18.3185 5.7873 18.3185 6.11431C18.3185 6.44131 18.0531 6.7067 17.7261 6.7067Z" fill="#5A1647"/>
</svg>
