<svg width="32" height="32" viewBox="0 0 32 32" fill="none" xmlns="http://www.w3.org/2000/svg">
<path d="M15.577 31.1539C6.98885 31.1539 0 24.1651 0 15.577C0 6.98885 6.98885 0 15.577 0C24.1651 0 31.1539 6.98885 31.1539 15.577C31.1539 24.1691 24.1691 31.1539 15.577 31.1539ZM15.577 1.00355C7.5406 1.00355 0.999548 7.54461 0.999548 15.581C0.999548 23.6173 7.5406 30.1584 15.577 30.1584C23.6133 30.1584 30.1544 23.6173 30.1544 15.581C30.1544 7.54061 23.6173 1.00355 15.577 1.00355Z" fill="#5A1647"/>
<path d="M12.5065 31.074C12.4025 31.074 12.2946 31.042 12.2066 30.9741C7.82458 27.6556 5.15779 19.999 6.12935 13.5419C7.32881 5.58952 12.9783 0.00402832 15.5771 0.00402832C15.853 0.00402832 16.0769 0.227927 16.0769 0.503803C16.0769 0.779678 15.853 1.00358 15.5771 1.00358C13.6899 1.00358 8.26838 6.06131 7.1169 13.6899C6.20931 19.7151 8.76016 27.1118 12.8063 30.1784C13.0262 30.3463 13.0702 30.6582 12.9023 30.8781C12.8063 31.006 12.6584 31.074 12.5065 31.074Z" fill="#5A1647"/>
<path d="M6.76107 17.964C5.07783 17.964 3.93834 17.3122 3.19868 16.6126C0.971681 14.4975 0.851735 10.6592 1.41148 9.10794C1.50344 8.84806 1.79131 8.71612 2.0512 8.80808C2.31108 8.90004 2.44702 9.1879 2.35106 9.44778C1.89926 10.7112 2.02721 14.1257 3.88637 15.8929C5.28973 17.2243 7.3648 17.3282 10.0476 16.2047C11.0311 15.7929 12.3745 14.5295 13.9378 13.0622C18.032 9.2199 23.6374 3.95427 29.1989 8.1124C29.4188 8.27632 29.4668 8.59218 29.2989 8.81208C29.135 9.03198 28.8191 9.07996 28.5992 8.91203C23.7134 5.25769 18.6717 9.98755 14.6215 13.7898C12.9903 15.3211 11.5829 16.6405 10.4354 17.1243C8.99206 17.724 7.77661 17.964 6.76107 17.964Z" fill="#5A1647"/>
<path d="M10.5312 21.7542C7.95232 21.7542 5.62936 21.3424 3.79819 20.5308C1.35129 19.4512 0.00390625 17.692 0.00390625 15.577C0.00390625 15.3011 0.227805 15.0772 0.50368 15.0772C0.779556 15.0772 1.00345 15.3011 1.00345 15.577C1.00345 17.748 2.74267 18.9755 4.20201 19.6192C10.3192 22.3219 22.2139 20.3388 30.1703 13.0861C30.3742 12.9022 30.69 12.9142 30.878 13.1181C31.0619 13.322 31.0499 13.6379 30.846 13.8258C24.9566 19.1914 16.9562 21.7542 10.5312 21.7542Z" fill="#5A1647"/>
<path d="M20.8507 27.9034C17.4242 27.9034 14.4136 26.4001 10.9232 24.6529L10.7872 24.5849C9.03603 23.7093 7.57669 23.5014 6.45319 23.9652C5.19776 24.485 4.77396 25.7124 4.76996 25.7244C4.682 25.9843 4.40212 26.1282 4.13824 26.0403C3.87836 25.9523 3.73442 25.6724 3.81839 25.4125C3.84237 25.3446 4.37413 23.7533 6.05338 23.0456C7.46074 22.4579 9.20396 22.6698 11.235 23.6853L11.371 23.7533C16.6206 26.3761 20.4149 28.2753 26.1883 25.6165C26.4402 25.5005 26.736 25.6125 26.852 25.8604C26.9679 26.1122 26.856 26.4081 26.6081 26.5241C24.493 27.5036 22.6179 27.9034 20.8507 27.9034Z" fill="#5A1647"/>
</svg>
