<svg width="29" height="40" viewBox="0 0 29 40" fill="none" xmlns="http://www.w3.org/2000/svg">
<path d="M11.2781 9.16228C9.96265 9.16228 3.40161 9.07032 3.40161 7.26314C3.40161 5.356 7.68368 4.95618 11.2781 4.95618C12.0137 4.95618 12.6734 4.96817 13.2851 4.99616L14.7405 5.09211C14.7445 5.09211 14.7485 5.09211 14.7525 5.09211C16.6396 5.26803 19.1505 5.68385 19.1505 7.26314C19.1505 9.07432 12.5935 9.16228 11.2781 9.16228ZM4.41715 7.20316C4.80898 7.551 7.14392 8.16673 11.2821 8.16673C15.4242 8.16673 17.7591 7.551 18.147 7.20316C18.087 6.97526 17.6392 6.36754 14.6685 6.09166L13.2332 5.99571C12.6454 5.97172 12.0057 5.95573 11.2821 5.95573C6.32429 5.95573 4.56509 6.75936 4.41715 7.20316Z" fill="#5A1647"/>
<path d="M11.2781 11.897C9.96265 11.897 3.40161 11.8051 3.40161 9.9979V7.05922C3.40161 6.78335 3.62551 6.55945 3.90139 6.55945C4.17726 6.55945 4.40116 6.78335 4.40116 7.05922V9.92593C4.761 10.2698 7.09994 10.8975 11.2781 10.8975C15.4522 10.8975 17.7911 10.2698 18.151 9.92593V7.05922C18.151 6.78335 18.3748 6.55945 18.6507 6.55945C18.9266 6.55945 19.1505 6.78335 19.1505 7.05922V9.9979C19.1505 11.8051 12.5935 11.897 11.2781 11.897Z" fill="#5A1647"/>
<path d="M11.2779 16.5909C10.4583 16.5909 3.24553 16.5389 2.70577 14.7877C2.62581 14.5238 2.77374 14.2439 3.03762 14.164C3.3055 14.084 3.58138 14.2319 3.66134 14.4958C3.90523 14.8477 6.48007 15.5913 11.2779 15.5913C16.0717 15.5913 18.6466 14.8477 18.9025 14.4678C19.0024 14.2079 19.2863 14.088 19.5422 14.188C19.7981 14.2879 19.926 14.5838 19.826 14.8397C19.1823 16.5389 12.0855 16.5909 11.2779 16.5909Z" fill="#5A1647"/>
<path d="M11.2618 39.8484C10.3862 39.8484 9.52263 39.8204 8.695 39.7645C6.58796 39.6245 1.53024 39.1007 0.102885 37.2016C0.0389134 37.1136 0.00292969 37.0097 0.00292969 36.9017V19.2497C0.00292969 17.8024 0.546684 16.427 1.53024 15.3715C1.54623 15.3555 1.56223 15.3395 1.57822 15.3275L4.92071 12.5567C5.04865 12.4528 5.21658 12.4168 5.3765 12.4608C6.7079 12.8406 8.95089 13.0645 11.3778 13.0645C13.6768 13.0645 15.8518 12.8566 17.1952 12.5088C17.3471 12.4688 17.511 12.5048 17.635 12.6047L20.9695 15.3275C20.9855 15.3395 21.0014 15.3555 21.0174 15.3715C22.009 16.423 22.5567 17.7984 22.5567 19.2457V36.8977C22.5567 37.0297 22.5048 37.1536 22.4128 37.2496C20.6016 39.0968 15.7758 39.8484 11.2618 39.8484ZM0.998481 36.7218C1.93006 37.7214 4.92871 38.517 8.75898 38.7689C13.6608 39.0888 19.5461 38.473 21.5532 36.6898V19.2537C21.5532 18.0742 21.1134 16.9508 20.3098 16.0871L17.1952 13.5443C15.7518 13.8801 13.6528 14.0721 11.3738 14.0721C9.00286 14.0721 6.78387 13.8601 5.35251 13.4963L2.23392 16.0791C1.43428 16.9468 0.994482 18.0742 0.994482 19.2537V36.7218H0.998481Z" fill="#5A1647"/>
<path d="M5.23659 13.4443C4.96072 13.4443 4.73682 13.2204 4.73682 12.9445V10.8015C4.73682 10.5256 4.96072 10.3017 5.23659 10.3017C5.51247 10.3017 5.73636 10.5256 5.73636 10.8015V12.9445C5.73636 13.2204 5.51247 13.4443 5.23659 13.4443Z" fill="#5A1647"/>
<path d="M17.3194 13.4963C17.0435 13.4963 16.8196 13.2724 16.8196 12.9965V10.8015C16.8196 10.5256 17.0435 10.3017 17.3194 10.3017C17.5952 10.3017 17.8191 10.5256 17.8191 10.8015V12.9965C17.8191 13.2724 17.5952 13.4963 17.3194 13.4963Z" fill="#5A1647"/>
<path d="M15.2202 25.6588C13.345 25.6588 11.2739 25.199 9.05095 24.2674C3.79332 22.0684 0.918622 24.1195 0.798676 24.2074C0.578775 24.3714 0.266916 24.3234 0.0989917 24.1035C-0.0649342 23.8836 -0.0209541 23.5717 0.198947 23.4078C0.334885 23.3038 3.6174 20.9129 9.43477 23.3478C14.8243 25.6028 19.0504 24.9871 21.6573 21.5646C21.8252 21.3447 22.137 21.3008 22.3569 21.4687C22.5768 21.6366 22.6208 21.9485 22.4529 22.1684C20.6897 24.4833 18.2108 25.6588 15.2202 25.6588Z" fill="#5A1647"/>
<path d="M3.25759 27.6819C3.09367 27.6819 2.93374 27.6019 2.83778 27.454C2.68585 27.2221 2.74982 26.9142 2.98172 26.7623L4.561 25.7268C4.7929 25.5748 5.10076 25.6388 5.25269 25.8707C5.40462 26.1026 5.34065 26.4104 5.10875 26.5624L3.52947 27.5979C3.44551 27.6539 3.34955 27.6819 3.25759 27.6819Z" fill="#5A1647"/>
<path d="M9.53087 28.9693C9.37494 28.9693 9.21901 28.8974 9.12305 28.7574L8.03554 27.2141C7.87561 26.9902 7.93159 26.6784 8.15549 26.5185C8.37939 26.3585 8.69125 26.4145 8.85117 26.6384L9.93868 28.1817C10.0986 28.4056 10.0426 28.7175 9.81874 28.8774C9.73078 28.9414 9.62682 28.9693 9.53087 28.9693Z" fill="#5A1647"/>
<path d="M18.3429 35.7982C18.2869 35.7982 18.2309 35.7903 18.1789 35.7703C17.919 35.6783 17.7791 35.3944 17.8711 35.1345L18.4908 33.3514C18.5827 33.0915 18.8666 32.9515 19.1265 33.0435C19.3864 33.1354 19.5263 33.4193 19.4344 33.6792L18.8146 35.4624C18.7427 35.6703 18.5508 35.7982 18.3429 35.7982Z" fill="#5A1647"/>
<path d="M14.0448 37.2696C13.8889 37.2696 13.7329 37.1976 13.637 37.0577L12.5495 35.5144C12.3895 35.2905 12.4455 34.9786 12.6694 34.8187C12.8933 34.6588 13.2052 34.7147 13.3651 34.9386L14.4526 36.4819C14.6125 36.7058 14.5566 37.0177 14.3327 37.1776C14.2447 37.2376 14.1407 37.2696 14.0448 37.2696Z" fill="#5A1647"/>
<path d="M13.4969 29.4811C13.3329 29.4811 13.173 29.4012 13.0771 29.2532C12.9251 29.0213 12.9931 28.7135 13.225 28.5615L14.8083 27.538C15.0402 27.3861 15.348 27.454 15.5 27.6859C15.6519 27.9178 15.5839 28.2257 15.352 28.3776L13.7687 29.4011C13.6848 29.4571 13.5928 29.4811 13.4969 29.4811Z" fill="#5A1647"/>
<path d="M4.25719 35.4624C4.15324 35.4624 4.05328 35.4304 3.96132 35.3664L2.43401 34.2549C2.21011 34.091 2.16213 33.7791 2.32606 33.5552C2.48999 33.3313 2.80185 33.2833 3.02574 33.4473L4.55305 34.5588C4.77695 34.7227 4.82493 35.0346 4.66101 35.2585C4.56505 35.3904 4.41312 35.4624 4.25719 35.4624Z" fill="#5A1647"/>
<path d="M19.5901 29.1132C19.3662 29.1132 19.1623 28.9613 19.1063 28.7334L18.6545 26.8982C18.5865 26.6304 18.7505 26.3585 19.0224 26.2945C19.2902 26.2305 19.5621 26.3905 19.6261 26.6623L20.0779 28.4975C20.1458 28.7654 19.9819 29.0373 19.71 29.1012C19.6661 29.1092 19.6261 29.1132 19.5901 29.1132Z" fill="#5A1647"/>
<path d="M7.39178 37.0216C7.21985 37.0216 7.05193 36.9337 6.95997 36.7738C6.82003 36.5339 6.9 36.23 7.13989 36.0901L8.76715 35.1345C9.00305 34.9946 9.31091 35.0745 9.45085 35.3104C9.59078 35.5503 9.51082 35.8542 9.27093 35.9941L7.64366 36.9497C7.5677 36.9977 7.47974 37.0216 7.39178 37.0216Z" fill="#5A1647"/>
<path d="M5.88039 32.4597C5.65649 32.4597 5.45258 32.3078 5.39661 32.0799L4.94481 30.2447C4.87684 29.9768 5.04477 29.7049 5.31264 29.641C5.58052 29.573 5.8524 29.7409 5.91637 30.0088L6.36817 31.844C6.43614 32.1119 6.26821 32.3837 6.00033 32.4477C5.96035 32.4557 5.92037 32.4597 5.88039 32.4597Z" fill="#5A1647"/>
<path d="M11.138 32.8276C11.0661 32.8276 10.9901 32.8116 10.9181 32.7756L9.22291 31.944C8.97502 31.824 8.87107 31.5241 8.99501 31.2763C9.11496 31.0284 9.41482 30.9244 9.66271 31.0484L11.3579 31.88C11.6058 31.9999 11.7098 32.2998 11.5858 32.5477C11.4979 32.7236 11.322 32.8276 11.138 32.8276Z" fill="#5A1647"/>
<path d="M15.5519 32.7796C15.4559 32.7796 15.356 32.7516 15.272 32.6916C15.0441 32.5357 14.9842 32.2238 15.1401 31.9959L16.2036 30.4366C16.3595 30.2087 16.6714 30.1488 16.8993 30.3047C17.1272 30.4606 17.1872 30.7725 17.0312 31.0004L15.9677 32.5597C15.8678 32.7036 15.7118 32.7796 15.5519 32.7796Z" fill="#5A1647"/>
<path d="M13.4689 7.0472C13.4369 7.0472 13.4049 7.04321 13.3729 7.03921C13.101 6.98724 12.9251 6.72335 12.9811 6.45148L14.1725 0.402207C14.2245 0.13033 14.4884 -0.0455887 14.7603 0.0103861C15.0322 0.0623626 15.2081 0.326244 15.1521 0.598121L13.9566 6.64339C13.9087 6.88328 13.7008 7.0472 13.4689 7.0472Z" fill="#5A1647"/>
<path d="M24.1882 37.2696H22.0572C21.7813 37.2696 21.5574 37.0457 21.5574 36.7698C21.5574 36.4939 21.7813 36.27 22.0572 36.27H24.1882C26.1673 36.27 27.7746 34.6587 27.7746 32.6836V22.2164C27.7746 20.2373 26.1633 18.63 24.1882 18.63H21.9292C21.6533 18.63 21.4294 18.4061 21.4294 18.1302C21.4294 17.8543 21.6533 17.6304 21.9292 17.6304H24.1882C26.7191 17.6304 28.7741 19.6895 28.7741 22.2164V32.6836C28.7741 35.2105 26.7191 37.2696 24.1882 37.2696Z" fill="#5A1647"/>
<path d="M23.3686 34.4068H22.0571C21.7813 34.4068 21.5574 34.183 21.5574 33.9071C21.5574 33.6312 21.7813 33.4073 22.0571 33.4073H23.3686C24.2202 33.4073 24.9119 32.7156 24.9119 31.864V23.032C24.9119 22.1804 24.2202 21.4887 23.3686 21.4887H22.0571C21.7813 21.4887 21.5574 21.2648 21.5574 20.9889C21.5574 20.713 21.7813 20.4891 22.0571 20.4891H23.3686C24.7719 20.4891 25.9114 21.6286 25.9114 23.032V31.864C25.9114 33.2634 24.7719 34.4068 23.3686 34.4068Z" fill="#5A1647"/>
</svg>
