<svg width="40" height="42" viewBox="0 0 40 42" fill="none" xmlns="http://www.w3.org/2000/svg">
<path d="M19.4786 3.82311C13.3595 3.82311 9.58932 1.21121 9.35397 1.04508C9.09555 0.860491 9.03556 0.500544 9.22014 0.242122C9.40473 -0.0162998 9.76467 -0.0762874 10.0231 0.1083C10.1292 0.182134 18.2972 5.77973 30.0554 0.0575378C30.3415 -0.0809024 30.6876 0.03908 30.826 0.32519C30.9645 0.6113 30.8445 0.957399 30.5584 1.09584C26.359 3.14014 22.6073 3.82311 19.4786 3.82311Z" fill="#5A1647"/>
<path d="M28.5787 40.552H11.4213C5.12229 40.552 0 35.4298 0 29.1353C0 25.6097 1.65667 22.2503 4.44855 20.0952V3.22856C4.44855 3.0209 4.5593 2.8317 4.73927 2.72556L9.40471 0.0767324C9.58468 -0.0247905 9.80157 -0.024786 9.98154 0.0813515C10.1569 0.182874 10.2677 0.376692 10.2677 0.579737V11.9872C10.2677 17.3541 14.6331 21.7196 20 21.7196C25.3669 21.7196 29.7323 17.3541 29.7323 11.9872V0.579737C29.7323 0.376692 29.8431 0.182874 30.0185 0.0813515C30.1938 -0.0201713 30.4153 -0.0247905 30.5953 0.0767324L35.2653 2.72556C35.4453 2.82708 35.5561 3.0209 35.5561 3.22856V20.0906C38.3433 22.2456 40 25.6051 40 29.1353C40 35.4298 34.8731 40.552 28.5787 40.552ZM5.5976 3.56081V20.3813C5.5976 20.5659 5.50992 20.7366 5.36225 20.8474C2.72727 22.7809 1.15367 25.8774 1.15367 29.1353C1.15367 34.7976 5.75911 39.3984 11.4213 39.3984H28.5787C34.2409 39.3984 38.8417 34.7929 38.8417 29.1353C38.8417 25.8866 37.282 22.804 34.6701 20.8705C34.4993 20.7643 34.3978 20.5797 34.3978 20.3813V3.56081L30.8814 1.56727V11.9872C30.8814 17.9909 25.9991 22.8732 19.9954 22.8732C13.9917 22.8732 9.10937 17.9909 9.10937 11.9872V1.56727L5.5976 3.56081Z" fill="#5A1647"/>
<path d="M10.0046 37.3719C9.96769 37.3719 9.93539 37.3673 9.89847 37.3627C5.92985 36.6289 3.05029 33.1725 3.05029 29.1347C3.05029 28.8163 3.30871 28.5579 3.62713 28.5579C3.94554 28.5579 4.20396 28.8163 4.20396 29.1347C4.20396 32.6142 6.68666 35.5999 10.1061 36.2274C10.4199 36.2874 10.6276 36.5874 10.5676 36.9012C10.5168 37.1781 10.2769 37.3719 10.0046 37.3719Z" fill="#5A1647"/>
<path d="M4.11169 26.9888C4.04709 26.9888 3.97787 26.975 3.91326 26.9519C3.61331 26.8412 3.46103 26.5089 3.57178 26.2089C4.13477 24.6815 5.14538 23.3525 6.48364 22.3741C6.74206 22.1849 7.102 22.2403 7.29121 22.4987C7.48041 22.7572 7.42503 23.1171 7.16661 23.3063C6.00833 24.1508 5.14077 25.2952 4.65161 26.6104C4.56393 26.8458 4.34704 26.9888 4.11169 26.9888Z" fill="#5A1647"/>
<path d="M17.5173 22.5679C17.1989 22.5679 16.9405 22.3095 16.9405 21.9911V13.2739C16.9405 9.7668 14.084 6.91032 10.5769 6.91032H9.69085C9.37244 6.91032 9.11401 6.6519 9.11401 6.33349C9.11401 6.01507 9.37244 5.75665 9.69085 5.75665H10.5769C14.7208 5.75665 18.0942 9.12997 18.0942 13.2739V21.9911C18.0942 22.3095 17.8357 22.5679 17.5173 22.5679Z" fill="#5A1647"/>
<path d="M22.4826 22.5679C22.1642 22.5679 21.9058 22.3095 21.9058 21.9911V13.2739C21.9058 9.12997 25.2791 5.75665 29.4231 5.75665H30.3091C30.6275 5.75665 30.8859 6.01507 30.8859 6.33349C30.8859 6.6519 30.6275 6.91032 30.3091 6.91032H29.4231C25.9159 6.91032 23.0594 9.7668 23.0594 13.2739V21.9911C23.0594 22.3095 22.801 22.5679 22.4826 22.5679Z" fill="#5A1647"/>
<path d="M34.9745 41.705H5.02068C4.70227 41.705 4.44385 41.4466 4.44385 41.1282V37.8887C4.44385 37.5703 4.70227 37.3119 5.02068 37.3119C5.33909 37.3119 5.59752 37.5703 5.59752 37.8887V40.5514H34.3977L34.4023 37.8887C34.4023 37.5703 34.6607 37.3119 34.9791 37.3119C35.2976 37.3119 35.556 37.5703 35.556 37.8887L35.5514 41.1282C35.5514 41.4466 35.2929 41.705 34.9745 41.705Z" fill="#5A1647"/>
</svg>
