<svg width="27" height="40" viewBox="0 0 27 40" fill="none" xmlns="http://www.w3.org/2000/svg">
<path d="M13.0821 39.3622C5.86935 39.3622 0 33.4929 0 26.2801C0 23.2615 1.04353 20.3348 2.95067 18.0039C1.82318 16.1527 1.23144 14.0337 1.23144 11.8506C1.22745 5.3176 6.54504 0 13.0821 0C19.6151 0 24.9327 5.3176 24.9327 11.8506C24.9327 14.0337 24.341 16.1567 23.2135 18.0039C25.1167 20.3348 26.1642 23.2575 26.1642 26.2801C26.1602 33.4929 20.2948 39.3622 13.0821 39.3622ZM3.91823 18.4077C2.03508 20.5987 0.999549 23.3934 0.999549 26.2801C0.999549 32.9411 6.4171 38.3627 13.0821 38.3627C19.7431 38.3627 25.1606 32.9451 25.1606 26.2801C25.1606 23.3934 24.1291 20.6027 22.25 18.4157C22.242 18.4077 22.234 18.3997 22.226 18.3917C22.066 18.2238 22.046 17.9679 22.17 17.776C23.3215 16.0168 23.9292 13.9657 23.9292 11.8506C23.9292 5.86535 19.0634 0.999548 13.0781 0.999548C7.0928 0.999548 2.22699 5.86935 2.22699 11.8506C2.22699 13.9657 2.83472 16.0128 3.9862 17.776C4.11414 17.9719 4.09015 18.2318 3.92623 18.3997C3.92223 18.3997 3.91823 18.4037 3.91823 18.4077Z" fill="#5A1647"/>
<path d="M6.45714 16.0848C6.3172 16.0848 6.17727 16.0248 6.07731 15.9088C4.94582 14.5854 4.72192 13.1941 4.72192 11.239C4.72192 6.0613 7.76855 3.09064 13.0821 3.09064C18.1159 3.09064 21.3704 6.18924 21.3704 10.9871C21.3704 12.6103 21.2105 14.4575 20.039 15.8649C19.8791 16.0568 19.6032 16.1008 19.3953 15.9728C17.5002 14.8093 15.3211 14.1976 13.0861 14.1976C10.8432 14.1976 8.65215 14.8173 6.75301 15.9888C6.66105 16.0528 6.5571 16.0848 6.45714 16.0848ZM13.0821 4.09418C8.33629 4.09418 5.72147 6.63304 5.72147 11.243C5.72147 12.8622 5.86141 13.9297 6.57709 14.9293C8.5482 13.7978 10.7872 13.2021 13.0821 13.2021C15.3491 13.2021 17.5641 13.7858 19.5192 14.8933C20.119 13.9977 20.3669 12.8262 20.3669 10.9911C20.3669 6.73699 17.5761 4.09418 13.0821 4.09418Z" fill="#5A1647"/>
<path d="M9.53561 31.9416H8.9119V21.6302H7.97632V21.0065H9.53561V31.9416Z" fill="black"/>
<path d="M9.53563 32.4415H8.91191C8.63604 32.4415 8.41214 32.2176 8.41214 31.9417V22.1302H7.97634C7.70046 22.1302 7.47656 21.9063 7.47656 21.6304V21.0067C7.47656 20.7308 7.70046 20.5069 7.97634 20.5069H9.53963C9.81551 20.5069 10.0394 20.7308 10.0394 21.0067V31.9417C10.0354 32.2176 9.81151 32.4415 9.53563 32.4415Z" fill="#5A1647"/>
<path d="M12.0664 24.209C12.0664 23.7412 12.1504 23.3054 12.3143 22.9056C12.4822 22.5058 12.7101 22.158 13.002 21.8661C13.2939 21.5742 13.6337 21.3463 14.0255 21.1784C14.4173 21.0105 14.8292 20.9265 15.265 20.9265C15.7008 20.9265 16.1166 21.0105 16.5084 21.1784C16.8962 21.3463 17.2401 21.5742 17.5319 21.8661C17.8238 22.158 18.0517 22.5058 18.2196 22.9056C18.3876 23.3054 18.4715 23.7412 18.4715 24.209V28.739C18.4715 29.2068 18.3876 29.6426 18.2196 30.0424C18.0517 30.4422 17.8238 30.7901 17.5319 31.0819C17.2401 31.3738 16.9002 31.6017 16.5084 31.7696C16.1166 31.9375 15.7008 32.0175 15.265 32.0175C14.8292 32.0175 14.4133 31.9335 14.0255 31.7696C13.6337 31.6017 13.2939 31.3738 13.002 31.0819C12.7101 30.7901 12.4822 30.4462 12.3143 30.0424C12.1464 29.6426 12.0664 29.2068 12.0664 28.739V24.209ZM17.8438 24.209C17.8438 23.8252 17.7758 23.4654 17.6399 23.1415C17.5039 22.8137 17.32 22.5298 17.0841 22.2979C16.8482 22.062 16.5764 21.8821 16.2645 21.7501C15.9527 21.6222 15.6168 21.5542 15.265 21.5542C14.9131 21.5542 14.5773 21.6222 14.2654 21.7501C13.9536 21.8821 13.6817 22.062 13.4458 22.2979C13.2099 22.5338 13.026 22.8137 12.89 23.1415C12.7541 23.4694 12.6861 23.8252 12.6861 24.209V28.739C12.6861 29.1228 12.7541 29.4826 12.89 29.8105C13.026 30.1384 13.2099 30.4182 13.4458 30.6541C13.6777 30.886 13.9536 31.0699 14.2654 31.2019C14.5773 31.3338 14.9131 31.3978 15.265 31.3978C15.6208 31.3978 15.9527 31.3338 16.2645 31.2019C16.5764 31.0739 16.8482 30.89 17.0841 30.6541C17.32 30.4182 17.5039 30.1384 17.6399 29.8105C17.7758 29.4826 17.8438 29.1268 17.8438 28.739V24.209Z" fill="black"/>
<path d="M15.265 32.5173C14.7612 32.5173 14.2814 32.4213 13.8296 32.2294C13.3778 32.0375 12.982 31.7696 12.6502 31.4338C12.3143 31.0979 12.0464 30.6941 11.8545 30.2343C11.6626 29.7745 11.5667 29.2748 11.5667 28.739V24.209C11.5667 23.6733 11.6626 23.1735 11.8545 22.7137C12.0464 22.2539 12.3143 21.8501 12.6502 21.5143C12.986 21.1784 13.3818 20.9105 13.8296 20.7226C14.7372 20.3388 15.8007 20.3388 16.7043 20.7226C17.1521 20.9145 17.5479 21.1824 17.8838 21.5143C18.2196 21.8501 18.4875 22.2539 18.6794 22.7137C18.8714 23.1775 18.9673 23.6813 18.9673 24.209V28.739C18.9673 29.2708 18.8714 29.7705 18.6794 30.2343C18.4875 30.6941 18.2196 31.0979 17.8838 31.4338C17.5519 31.7656 17.1521 32.0335 16.7043 32.2254C16.2525 32.4213 15.7688 32.5173 15.265 32.5173ZM15.265 22.054C14.9811 22.054 14.7092 22.106 14.4573 22.21C14.2055 22.3179 13.9896 22.4618 13.8016 22.6498C13.6137 22.8377 13.4658 23.0616 13.3538 23.3294C13.2459 23.5933 13.1899 23.8892 13.1899 24.209V28.739C13.1899 29.0589 13.2459 29.3547 13.3538 29.6186C13.4658 29.8905 13.6097 30.1104 13.8016 30.2983C13.9896 30.4862 14.2095 30.6341 14.4573 30.7341C14.9611 30.946 15.5728 30.946 16.0726 30.7341C16.3245 30.6301 16.5444 30.4822 16.7323 30.2943C16.9202 30.1064 17.0682 29.8785 17.1761 29.6146C17.2881 29.3467 17.344 29.0509 17.344 28.735V24.209C17.344 23.8892 17.2881 23.5933 17.1801 23.3294C17.0722 23.0616 16.9202 22.8337 16.7363 22.6458C16.5484 22.4578 16.3325 22.3139 16.0766 22.206C15.8247 22.106 15.5489 22.054 15.265 22.054Z" fill="#5A1647"/>
</svg>
