<svg width="58" height="32" viewBox="0 0 58 32" fill="none" xmlns="http://www.w3.org/2000/svg">
<path fill-rule="evenodd" clip-rule="evenodd" d="M28.7812 14.0373C35.6263 1.25439 52.4625 17.9796 29.0363 31.5271C5.27008 18.8398 21.6918 0.860156 28.7812 14.0373ZM6.30109 18.0633C8.26744 13.7386 13.7413 14.4076 15.1125 18.0633C15.6226 20.2734 16.9938 24.7892 19.7254 26.617H15.1125C-2.76537 31.5271 -2.59531 17.4898 4.41977 3.94238C4.92996 3.1778 5.27008 2.59241 5.62084 0.967675C5.69524 0.477864 5.95034 0 6.47115 0C7.58719 0 8.69259 0 9.80863 0C10.3188 0 10.6696 0.477864 10.6696 0.955729C10.6696 1.82783 10.6696 2.68799 10.6696 3.54814C10.6696 4.02601 10.3294 4.50387 9.89366 4.50387V4.59944C9.89366 4.98173 9.63857 5.17288 9.38347 5.17288C8.87329 5.17288 8.35247 5.17288 7.84228 5.17288C7.58719 5.17288 7.33209 4.98173 7.33209 4.59944V4.51582C6.99197 4.51582 6.73687 4.51582 6.48178 4.51582C6.39675 4.51582 6.31172 4.51582 6.31172 4.51582C5.78027 9.52145 5.8653 13.9297 6.30109 18.0633ZM51.4421 18.0633C49.3907 13.7386 44.0018 14.4076 42.6307 18.0633C41.9505 21.2291 40.0691 24.4069 37.9221 26.617H42.6307C60.4129 31.5151 60.3279 17.4898 53.2277 3.93043C52.8026 3.16585 52.3774 2.58047 52.1223 0.955729C52.0373 0.477864 51.6972 0 51.272 0C50.0709 0 48.9655 0 47.8495 0C47.3393 0 46.9992 0.477864 46.9992 0.955729C46.9992 1.82783 46.9992 2.68799 46.9992 3.54814C46.9992 4.02601 47.3393 4.50387 47.7645 4.50387V4.59944C47.7645 4.98173 48.0196 5.17288 48.2747 5.17288C48.7848 5.17288 49.3057 5.17288 49.8159 5.17288C50.156 5.17288 50.4111 4.98173 50.4111 4.59944V4.51582C50.6662 4.51582 50.9213 4.51582 51.272 4.51582H51.357C51.8672 9.52145 51.8672 13.9297 51.4421 18.0633Z" fill="#F6590E"/>
</svg>
