<svg width="55" height="41" viewBox="0 0 55 41" fill="none" xmlns="http://www.w3.org/2000/svg">
<path fill-rule="evenodd" clip-rule="evenodd" d="M29.52 1.13C40.38 1.13 49.23 9.98 49.23 20.84C49.23 31.7 40.38 40.55 29.52 40.55C18.58 40.55 9.73 31.7 9.73 20.84C9.73 9.98 18.58 1.13 29.52 1.13ZM53.09 25.58C53.73 25.9 54.13 26.46 54.13 27.19V39.18C54.13 40.15 53.41 40.87 52.44 40.87C51.48 40.87 50.67 40.15 50.67 39.18V27.19C50.67 26.47 51.15 25.9 51.72 25.66V24.85C51.56 24.77 51.4 24.69 51.4 24.61C51.07 24.61 47.62 1.2 53.65 0.8C54.86 0.72 54.13 24.21 53.33 24.61C53.33 24.69 53.25 24.77 53.09 24.77V25.58ZM5.47 0C8.44 0 10.94 3.7 10.94 7.88C10.94 12.06 8.85 15.2 6.11 15.68V24.61C6.75 24.85 7.24 25.5 7.24 26.14V38.13C7.24 39.1 6.44 39.82 5.47 39.82C4.5 39.82 3.7 39.1 3.7 38.13V26.14C3.7 25.5 4.18 24.85 4.75 24.61V15.68C2.09 15.2 0 12.07 0 7.88C0 3.69 2.49 0 5.47 0ZM29.52 10.7C32.33 10.7 34.83 11.83 36.68 13.68C38.53 15.53 39.66 18.02 39.66 20.84C39.66 23.66 38.53 26.15 36.68 28C34.83 29.85 32.33 30.98 29.52 30.98C26.71 30.98 24.13 29.85 22.36 28C20.51 26.15 19.38 23.66 19.38 20.84C19.38 18.02 20.51 15.53 22.36 13.68C24.13 11.82 26.71 10.7 29.52 10.7ZM35.72 14.64C34.11 13.03 31.94 12.07 29.53 12.07C27.12 12.07 24.86 13.04 23.34 14.64C21.73 16.25 20.77 18.42 20.77 20.83C20.77 23.24 21.73 25.41 23.34 27.02C24.87 28.63 27.12 29.59 29.53 29.59C31.94 29.59 34.12 28.63 35.72 27.02C37.33 25.41 38.3 23.24 38.3 20.83C38.29 18.42 37.33 16.25 35.72 14.64ZM29.52 4.75C38.37 4.75 45.61 11.99 45.61 20.84C45.61 29.69 38.37 36.93 29.52 36.93C20.59 36.93 13.43 29.69 13.43 20.84C13.43 11.99 20.59 4.75 29.52 4.75Z" fill="#F7590E"/>
</svg>
