<svg width="37" height="55" viewBox="0 0 37 55" fill="none" xmlns="http://www.w3.org/2000/svg">
<g clip-path="url(#clip0_521_3220)">
<path fill-rule="evenodd" clip-rule="evenodd" d="M19.17 0C21.66 0 23.75 2.09 23.75 4.58C23.75 7.07 21.66 9.17 19.17 9.17C16.68 9.17 14.58 7.08 14.58 4.58C14.58 2.09 16.67 0 19.17 0ZM12.89 10.38H25.68C26.24 10.38 29.94 16.09 30.59 16.98C30.91 17.3 30.99 17.79 30.91 18.27L29.54 26.31C29.38 27.2 28.49 27.84 27.61 27.68C26.8 27.52 26.16 26.64 26.32 25.75L27.61 18.43L25.28 15.29L23.75 31.86L25.68 39.1L34.61 34.43C35.41 34.03 36.38 34.35 36.78 35.15C37.18 35.88 36.86 36.92 36.06 37.24L25.44 42.8C25.36 42.88 25.2 42.96 25.04 42.96C24.16 43.2 23.27 42.72 23.03 41.83C21.42 39.34 19.17 34.91 18.77 32.25L11.13 40.05L13.87 52.28C14.03 53.16 13.55 54.05 12.66 54.21C11.77 54.45 10.89 53.89 10.73 53.08L7.34001 39.74C7.26001 39.34 7.26001 38.94 7.42001 38.61L14.66 29.84L13.37 15.68L9.11001 21C9.03001 21.08 8.95001 21.24 8.87001 21.32C8.23001 21.88 7.26001 21.88 6.62001 21.32L0.43001 15.13C-0.12999 14.49 -0.12999 13.52 0.43001 12.88C1.07001 12.24 2.12001 12.24 2.76001 12.88L7.59001 17.71C8.79001 16.25 11.85 10.38 12.89 10.38Z" fill="#F6590E"/>
</g>
<defs>
<clipPath id="clip0_521_3220">
<rect width="36.96" height="54.27" fill="white"/>
</clipPath>
</defs>
</svg>
