<svg width="55" height="55" viewBox="0 0 55 55" fill="none" xmlns="http://www.w3.org/2000/svg">
<g clip-path="url(#clip0_521_3174)">
<path d="M5.71 0H48.67C50.2 0 51.65 0.64 52.69 1.69C53.65 2.65 54.3 4.1 54.3 5.63V48.59C54.3 50.2 53.65 51.57 52.69 52.61C51.65 53.65 50.2 54.3 48.67 54.3H5.71C4.18 54.3 2.73 53.66 1.69 52.61C0.64 51.56 0 50.2 0 48.59V5.63C0 4.1 0.64 2.65 1.69 1.69C2.73 0.64 4.18 0 5.71 0ZM41.19 19.63H37.49V20.35H41.19V19.63ZM38.69 13.27L35.47 15.12L35.79 15.76L39.09 13.91L38.69 13.27ZM33.79 8.69L31.94 11.91L32.5 12.31L34.35 9.09L33.79 8.69ZM20.35 8.85L22.2 12.07L22.76 11.67L20.91 8.45L20.35 8.85ZM15.45 13.68L18.67 15.53L19.07 14.89L15.85 13.04L15.45 13.68ZM16.81 19.63H13.11V20.35H16.81V19.63ZM27.99 6.03C36.12 6.51 42.47 13.19 42.47 21.31H30.65C30.65 20.34 30.25 19.46 29.6 18.9C28.96 18.26 28.15 17.85 27.19 17.85C26.22 17.85 25.34 18.25 24.69 18.9C24.13 19.46 23.72 20.35 23.72 21.31H12.79C12.47 21.31 12.15 21.39 11.9 21.47V21.31C11.9 13.18 18.26 6.51 26.3 6.03V13.59H27.99V6.03ZM26.3 50.92V31.94H27.99V50.92H48.66C49.3 50.92 49.87 50.68 50.27 50.28C50.67 49.8 51 49.23 51 48.59V5.63C51 4.99 50.68 4.42 50.27 4.02C49.87 3.62 49.31 3.3 48.66 3.3H5.71C5.07 3.3 4.5 3.62 4.02 4.02C3.62 4.42 3.38 4.99 3.38 5.63V48.59C3.38 49.23 3.62 49.8 4.02 50.28C4.5 50.68 5.06 50.92 5.71 50.92H26.3Z" fill="#F7590E"/>
</g>
<defs>
<clipPath id="clip0_521_3174">
<rect width="54.3" height="54.3" fill="white"/>
</clipPath>
</defs>
</svg>
