<svg width="55" height="55" viewBox="0 0 55 55" fill="none" xmlns="http://www.w3.org/2000/svg">
<g clip-path="url(#clip0_521_3193)">
<path d="M27.11 0C34.59 0 41.43 2.98 46.33 7.88C51.24 12.79 54.29 19.62 54.29 27.1C54.29 34.58 51.23 41.42 46.33 46.33C41.42 51.24 34.58 54.21 27.11 54.21C19.63 54.21 12.87 51.23 7.88 46.33C2.98 41.43 0 34.59 0 27.11C0 19.63 2.98 12.79 7.88 7.89C12.87 2.98 19.63 0 27.11 0ZM24.7 13.92C24.7 12.55 25.83 11.51 27.12 11.51C28.41 11.51 29.53 12.56 29.53 13.92V26.15L41.84 38.38C42.8 39.35 42.8 40.79 41.84 41.76C40.95 42.65 39.43 42.73 38.54 41.76L25.58 28.88C25.1 28.48 24.7 27.83 24.7 27.11V13.92ZM4.82 24.7H9.49V29.53H4.82C5.39 34.76 7.8 39.42 11.26 42.96C14.8 46.5 19.47 48.83 24.7 49.4V44.73H29.53V49.4C34.76 48.84 39.42 46.5 42.96 42.96C46.5 39.42 48.83 34.76 49.39 29.53H44.81V24.7H49.39C48.83 19.47 46.49 14.8 42.96 11.27C39.42 7.73 34.75 5.4 29.53 4.83V9.5H24.7V4.83C19.47 5.39 14.81 7.73 11.26 11.27C7.8 14.8 5.39 19.47 4.82 24.7Z" fill="#F6590E"/>
</g>
<defs>
<clipPath id="clip0_521_3193">
<rect width="54.3" height="54.22" fill="white"/>
</clipPath>
</defs>
</svg>
