<svg width="48" height="55" viewBox="0 0 48 55" fill="none" xmlns="http://www.w3.org/2000/svg">
<g clip-path="url(#clip0_521_3188)">
<path fill-rule="evenodd" clip-rule="evenodd" d="M18.83 51.64C15.93 55.26 12.47 55.02 9.10003 51.72C-4.09997 38.93 -4.25997 9.80999 17.46 19.06C17.06 13.27 15.29 11.1 11.27 6.58999L13.52 4.33999C15.93 6.82999 17.78 9.16999 18.99 11.82C19.63 11.26 20.28 10.78 20.92 10.21C19.31 -2.42001 40.06 -0.570011 47.7 1.43999C41.11 5.05999 24.3 24.77 21.24 11.66C20.6 12.06 20.03 12.55 19.47 13.11C20.11 14.8 20.52 16.65 20.6 18.9C41.92 10.21 41.76 39.01 28.64 51.72C25.26 55.02 21.8 55.26 18.83 51.64ZM43.92 2.56999C40.14 2.72999 35.63 3.61999 30.81 5.70999C28.07 6.99999 25.18 8.60999 22.28 10.78V10.86C22.92 14.16 24.53 15.12 26.54 14.72C30.24 14 35.63 9.48999 40.14 5.62999C41.51 4.49999 42.8 3.44999 43.92 2.56999ZM22.12 9.32999C24.94 7.31999 27.67 5.78999 30.33 4.57999C34.27 2.88999 37.97 1.92999 41.35 1.51999C37.73 1.11999 33.55 1.03999 30.01 1.75999C28 2.08999 26.23 2.72999 24.94 3.60999C23.65 4.49999 22.69 5.61999 22.37 7.06999C22.12 7.79999 22.04 8.51999 22.12 9.32999Z" fill="#F6590E"/>
</g>
<defs>
<clipPath id="clip0_521_3188">
<rect width="47.7" height="54.27" fill="white"/>
</clipPath>
</defs>
</svg>
