<svg xmlns="http://www.w3.org/2000/svg" viewBox="0 0 118.89 20"><defs><style>.cls-1{fill:#fff;}</style></defs><g id="Capa_2" data-name="Capa 2"><g id="Capa_1-2" data-name="Capa 1"><path class="cls-1" d="M0,20V0H20V20ZM19.46.54H.62V19.41H10.76a5.59,5.59,0,0,1-2.65-2.36,7.21,7.21,0,0,1-.94-3.71A7.78,7.78,0,0,1,7.6,10.7a5.77,5.77,0,0,1,3.23-3.51A6.92,6.92,0,0,1,15.58,7a5.7,5.7,0,0,1,3,2.39,7.3,7.3,0,0,1,.83,1.84ZM16.44,12a4.49,4.49,0,0,0-.55-1.39,2.82,2.82,0,0,0-1-1,2.89,2.89,0,0,0-1.51-.38A2.57,2.57,0,0,0,12,9.6a3.09,3.09,0,0,0-1,.92,4,4,0,0,0-.57,1.29,6.52,6.52,0,0,0-.17,1.45,5.55,5.55,0,0,0,.19,1.45A4.57,4.57,0,0,0,11,16,3,3,0,0,0,12,17a2.69,2.69,0,0,0,1.41.36A3.05,3.05,0,0,0,14.78,17a3.25,3.25,0,0,0,1-.86,4,4,0,0,0,.62-1.22,5.16,5.16,0,0,0,.2-1.41A6.68,6.68,0,0,0,16.44,12Zm3,3.39a6.53,6.53,0,0,1-1.23,2.42,5.86,5.86,0,0,1-2.15,1.61h3.38Z"/><path class="cls-1" d="M24.72,20V0h20V20ZM44.18.54H25.34V19.41h8.51V7h3q1.21,2,2.38,4c.78,1.32,1.53,2.67,2.27,4l-.16-8h2.81Zm-4.09,17L39,15.68l-1.18-2a15.48,15.48,0,0,1-1-2l.08,7.73h4.43C40.85,18.8,40.46,18.18,40.09,17.56Z"/><path class="cls-1" d="M49.45,20V0h20V20ZM68.91.54H50.06V19.41h9.4V7h9.45Zm0,8.91H62.6v2.63h5.48v2.44H62.57v4.89h6.34Z"/><path class="cls-1" d="M74.17,20V0h20V20ZM93.63.54H74.79V19.41H90.68V7.06h2.95Z"/><path class="cls-1" d="M98.89,20V0h20V20ZM118.36.54H99.51V19.41h12.67V9.5h-3.27V7.06h9.45Zm0,9h-3v9.91h3Z"/></g></g></svg>